<svg xmlns="http://www.w3.org/2000/svg" xmlns:xlink="http://www.w3.org/1999/xlink" xmlns:inkscape="http://www.inkscape.org/namespaces/inkscape" version="1.1" width="413.671" height="192.499" viewBox="0 0 413.671 192.499">
<defs>
<path id="font_1_1" d="M.19198609 .2502594C.19198609 .2792511 .16799927 .30325318 .13899231 .30325318 .10998535 .30325318 .085998538 .2792511 .085998538 .2502594 .085998538 .22125244 .10998535 .19726563 .13899231 .19726563 .16799927 .19726563 .19198609 .22125244 .19198609 .2502594Z"/>
<path id="font_1_7" d="M.34799195 .6826172C.20698548 .6826172 .099990848 .614624 .05899048 .5676422 .023986817 .5276642 .020996094 .4986725 .020996094 .49667359 .020996094 .49067689 .024993897 .48867799 .0309906 .48867799 .04699707 .48867799 .069992069 .5026703 .07798767 .5076599 .09899902 .5216675 .101989749 .5276642 .10798645 .5466461 .12199402 .58662417 .1499939 .62161257 .27598573 .62760928 .2579956 .40270997 .19799805 .18382263 .11399841-.02482605 .10798645-.03981018 .10798645-.041809083 .10798645-.042816163 .10798645-.045806886 .11099243-.049804689 .117996219-.049804689 .13398743-.049804689 .18199158-.027816773 .19299317-.0018615723 .24499512 .11993408 .32699586 .3497467 .35699464 .62760928H.40899659C.5309906 .62760928 .647995 .58062747 .647995 .48068238 .647995 .40571595 .57598879 .2657776 .38198854 .25978089 .36099244 .25878907 .34999085 .25878907 .32199098 .24078369 .3039856 .22877503 .29599 .2177887 .29599 .21177674 .29599 .20478821 .3019867 .20478821 .31498719 .20478821 .49699403 .20478821 .73298647 .35873414 .73298647 .5236664 .73298647 .63760378 .59799197 .6826172 .48199464 .6826172H.34799195Z"/>
<path id="font_2_7" d="M.43899537 .6253052C.43899537 .64230349 .42599488 .66329959 .39898683 .66329959 .36999513 .66329959 .34298707 .6352997 .34298707 .6083069 .34298707 .5923004 .35499574 .5703125 .3829956 .5703125 .4099884 .5703125 .43899537 .5962982 .43899537 .6253052M.22698975-.04901123C.20999146-.11804199 .15699768-.17610169 .09799194-.17610169 .084991458-.17610169 .07299805-.17408753 .06199646-.17004395 .08799744-.15803528 .09599304-.1340332 .09599304-.11903381 .09599304-.09503174 .07699585-.08203125 .056991579-.08203125 .025985718-.08203125 0-.10903931 0-.14103699 0-.17910767 .038986207-.20410156 .09899902-.20410156 .15899658-.20410156 .27598573-.16804505 .30699159-.04600525L.39698792 .31230165C.3999939 .32331849 .4019928 .33232118 .4019928 .34733583 .4019928 .40238954 .35499574 .44140626 .29499818 .44140626 .18399048 .44140626 .11999512 .30230714 .11999512 .2882843 .11999512 .27526856 .13398743 .27526856 .13699341 .27526856 .14898682 .27526856 .1499939 .27827455 .15699768 .29328919 .18199158 .35134889 .23399353 .4133911 .2919922 .4133911 .31698609 .4133911 .32598878 .39637757 .32598878 .36434938 .32598878 .35334779 .32398988 .33932496 .32299806 .33433534L.22698975-.04901123Z"/>
<path id="font_3_4" d="M.33499146 .63612368C.33499146 .6630554 .33299256 .6640625 .30499269 .6640625 .24099732 .6014404 .1499939 .6004486 .10899353 .6004486V.5644531C.1329956 .5644531 .19898987 .5644531 .2539978 .592453V.08203125C.2539978 .04899597 .2539978 .035995485 .1539917 .035995485H.115997318V0C.13398743 .0009918213 .25698854 .0039978029 .2939911 .0039978029 .32499696 .0039978029 .45098878 .0009918213 .47299195 0V.035995485H.43499757C.33499146 .035995485 .33499146 .04899597 .33499146 .08203125V.63612368Z"/>
<path id="font_1_5" d="M.61499026 .6826172C.5189972 .6826172 .43598939 .63661196 .3899994 .6036072 .2809906 .52563479 .2689972 .44166566 .2689972 .43966676 .2689972 .43267823 .2749939 .43267823 .2789917 .43267823 .3019867 .43267823 .34700013 .46066285 .35299684 .47865296 .38598634 .58462527 .45799256 .62760928 .55599978 .62760928H.68899539C.57899478 .53964236 .5329895 .38868714 .46699525 .12878418 .44299317 .035812379 .38198854-.06414795 .2809906-.06414795 .20298767-.06414795 .13198853-.012161255 .13198853 .074798587 .13198853 .09480286 .13699341 .11178589 .13699341 .11578369 .13699341 .11878967 .13598633 .12478638 .1269989 .12478638 .12098694 .12478638 .09799194 .119781497 .069992069 .09880066 .057998659 .08979797 .04699707 .07980347 .04699707 .032821657 .04699707-.059143068 .116989139-.119140628 .21499634-.119140628 .2999878-.119140628 .3809967-.07115173 .42999269-.029159546 .5219879 .049804689 .5399933 .122787479 .55799868 .1937561 .59498599 .3387146 .6429901 .52064517 .71798709 .60461428 .73399356 .62260439 .73799136 .62561038 .7609863 .62760928 .80599978 .63061526 .83999636 .6646118 .83999636 .6756134 .83999636 .6816101 .83898928 .6826172 .81700137 .6826172H.61499026Z"/>
<path id="font_4_5" d="M.66600039 .6766052H.054992677L.035995485 .4516449H.06098938C.07499695 .6126251 .08999634 .6456146 .24099732 .6456146 .25898744 .6456146 .2849884 .6456146 .29499818 .6436157 .31599427 .6396179 .31599427 .62861636 .31599427 .60562136V.078948978C.31599427 .04498291 .31599427 .0309906 .21099854 .0309906H.17098999V0C.21199036 .0029907227 .31399537 .0029907227 .3600006 .0029907227 .4059906 .0029907227 .5089874 .0029907227 .5499878 0V.0309906H.5099945C.40499879 .0309906 .40499879 .04498291 .40499879 .078948978V.60562136C.40499879 .62561038 .40499879 .6396179 .4229889 .6436157 .43399049 .6456146 .46099855 .6456146 .47999574 .6456146 .6309967 .6456146 .6459961 .6126251 .6599884 .4516449H.68499758L.66600039 .6766052Z"/>
<path id="font_4_4" d="M.34899903 .38783265 .22099304 .41886903C.15899658 .4338684 .11999512 .48791505 .11999512 .5459595 .11999512 .61602786 .17399597 .677063 .2519989 .677063 .4189911 .677063 .44099427 .51293948 .44699098 .4678955 .44799806 .4618988 .44799806 .45588685 .45899964 .45588685 .47200013 .45588685 .47200013 .46089173 .47200013 .47990418V.68107607C.47200013 .69807437 .47200013 .7050781 .46099855 .7050781 .45399476 .7050781 .45298768 .70407107 .44599916 .69207766L.41099549 .6350403C.3809967 .6640625 .33999635 .7050781 .25099183 .7050781 .13999939 .7050781 .055999757 .61701968 .055999757 .51094058 .055999757 .4278717 .10899353 .35481263 .18699646 .3277893 .19799805 .3237915 .24899292 .31178285 .31900025 .2947693 .34599305 .28775025 .37599183 .28074647 .4039917 .24372864 .4249878 .21769715 .43499757 .18467713 .43499757 .15164185 .43499757 .080596927 .3849945 .008529663 .30099488 .008529663 .27198792 .008529663 .19599915 .013534546 .14299011 .062576297 .084991458 .116622928 .08198547 .18066406 .08099365 .21670532 .07998657 .22669983 .07199097 .22669983 .068984989 .22669983 .055999757 .22669983 .055999757 .21969605 .055999757 .20169068V.0015258789C.055999757-.015472412 .055999757-.022460938 .066986087-.022460938 .07398987-.022460938 .07499695-.020462037 .08198547-.009475708 .08198547-.008468628 .084991458-.0054626467 .117996219 .047561647 .14898682 .013534546 .21299744-.022460938 .3019867-.022460938 .4189911-.022460938 .49899293 .07559204 .49899293 .18566895 .49899293 .28575135 .43299867 .36782838 .34899903 .38783265Z"/>
<path id="font_1_6" d="M.3849945 .5590515C.4119873 .42903138 .45599366 .2150116 .5130005 .09899902 .5349884 .055984498 .54599 .033981325 .55599978 .033981325 .55999758 .033981325 .56199648 .033981325 .5799866 .051986696 .6559906 .125 .70799258 .18299866 .7779999 .26301576L.996994 .51805117C.9830017 .43304444 .94699099 .20800781 .94699099 .09098816 .94699099 .0639801 .94799807 .037979127 .95098879 .010986328 .95199587-.000015258789 .95599368-.029022217 .9980011-.029022217 1.0399933-.029022217 1.1159973 .014984131 1.1159973 .034988405 1.1159973 .040985109 1.1100006 .041992189 1.1069946 .041992189 1.0939942 .041992189 1.0739899 .032989503 1.0629883 .025985718 1.0390015 .0289917 1.0369873 .04498291 1.0349884 .067993167 1.0319977 .099990848 1.0319977 .12998963 1.0319977 .13400269 1.0319977 .24501038 1.0759888 .5480499 1.1049957 .67207339 1.1059876 .67907717 1.1069946 .68107607 1.1069946 .68907168 1.1069946 .69306948 1.1059876 .70407107 1.098999 .70407107 1.0950012 .70407107 1.0939942 .70306399 1.074997 .68107607 .98098757 .5670624 .68899539 .2170105 .58999636 .1329956 .5649872 .18600464 .5469971 .22401428 .5119934 .36402894 .48298646 .47705079 .46598817 .5600586 .44898988 .657074 .44599916 .6710663 .44099427 .69807437 .44099427 .70007327 .43798829 .7050781 .43299867 .7050781 .42999269 .7050781 .4119873 .7050781 .36999513 .68307498 .36698915 .6620636 .35499574 .57806399 .33499146 .44604493 .2649994 .25502015 .18499756 .041992189 .16299439 .041992189 .14399719 .041992189 .1309967 .041992189 .09399414 .049987794 .07199097 .069992069 .066986087 .07498169 .06498718 .07498169 .06298828 .07498169 .04899597 .07498169 .026992798 .02998352 .026992798 .0019836426 .026992798-.007019043 .026992798-.019012452 .05899048-.036010744 .083999637-.04901123 .10798645-.05001831 .11299133-.05001831 .1749878-.05001831 .23399353 .09298706 .2539978 .14399719 .30099488 .25701905 .35699464 .41503907 .3849945 .5590515Z"/>
<path id="font_2_6" d="M.84298709 .6901245C.84298709 .69511416 .83999636 .703125 .8299866 .703125 .82299807 .703125 .82099917 .70111086 .81199648 .69111636L.7389984 .61413577C.7299957 .62612918 .673996 .703125 .5509949 .703125 .30799867 .703125 .069992069 .48820497 .069992069 .2623291 .069992069 .09941101 .19799805-.01953125 .3769989-.01953125 .43099977-.01953125 .5269928-.008544922 .6299896 .078430179 .70899966 .14538574 .73098757 .23234558 .73098757 .24034119 .73098757 .25334168 .71899417 .25334168 .71398928 .25334168 .70098879 .25334168 .69898989 .24833679 .69599917 .23735047 .6549988 .10041809 .5149994 .016464234 .3939972 .016464234 .28799439 .016464234 .16999817 .07342529 .16999817 .23135376 .16999817 .2603302 .1769867 .4182434 .2919922 .5441742 .36099244 .6211395 .46598817 .66711428 .5609894 .66711428 .6769867 .66711428 .7449951 .5831604 .7449951 .47122193 .7449951 .4432373 .74198916 .43623353 .74198916 .43023683 .74198916 .4172516 .7549896 .4172516 .7599945 .4172516 .776001 .4172516 .776001 .4202423 .7809906 .4392395L.84298709 .6901245Z"/>
<path id="font_4_2" d="M.33099366-.2400055C.33099366-.23701477 .33099366-.23500061 .31399537-.21800232 .18899536-.0920105 .15699768 .09700012 .15699768 .25 .15699768 .42399598 .19499207 .59799197 .31799317 .72299197 .33099366 .73498538 .33099366 .7369995 .33099366 .73999026 .33099366 .746994 .32699586 .75 .32099916 .75 .31098939 .75 .22099304 .6819916 .1619873 .5549927 .11099243 .44499208 .09899902 .33399964 .09899902 .25 .09899902 .17199707 .10998535 .050994874 .16499329-.06201172 .22499085-.18501282 .31098939-.25 .32099916-.25 .32699586-.25 .33099366-.24700928 .33099366-.2400055Z"/>
<path id="font_5_1" d="M.32398988 .14329529C.32398988 .1532898 .31498719 .1532898 .31199647 .1532898 .30299378 .1532898 .30099488 .14929199 .29899598 .14228821 .2679901 .044265748 .18499756 .011245728 .14199829 .011245728 .12799073 .011245728 .115997318 .014251709 .115997318 .044265748 .115997318 .06826782 .12399292 .091278079 .13398743 .11828613 .1789856 .23931885 .21998596 .4073639 .21998596 .41537477 .21998596 .43237306 .20799256 .4423828 .19099427 .4423828 .17999268 .4423828 .1619873 .43537904 .1539917 .41636659 .14698792 .39736939 .13798523 .34835816 .13198853 .3293457 .12998963 .32434083 .10499573 .23631287 .101989749 .22331238 .09899902 .21331787 .08999634 .18830872 .08799744 .17829895 .07998657 .15029907 .055999757 .103271488 .055999757 .0712738 .055999757 .030258179 .083999637-.0107421879 .13999939-.0107421879 .2539978-.0107421879 .32398988 .11027527 .32398988 .14329529Z"/>
<path id="font_4_3" d="M.2889862 .25C.2889862 .32798768 .27799989 .44898988 .22299195 .56199648 .16299439 .68499758 .07699585 .75 .066986087 .75 .06098938 .75 .056991579 .74598696 .056991579 .73999026 .056991579 .7369995 .056991579 .73498538 .07598877 .71699526 .17399597 .6179962 .23098755 .45899964 .23098755 .25 .23098755 .07899475 .19400025-.09700012 .069992069-.2230072 .056991579-.23500061 .056991579-.23701477 .056991579-.2400055 .056991579-.2460022 .06098938-.25 .066986087-.25 .07699585-.25 .16699219-.18200684 .22599793-.055007936 .2769928 .054992677 .2889862 .16600037 .2889862 .25Z"/>
<path id="font_5_2" d="M.6349945 .5776062C.644989 .61860659 .6629944 .64860537 .7429962 .6516113 .7480011 .6516113 .7599945 .65260317 .7599945 .6716156 .7599945 .6726074 .7599945 .6826172 .746994 .6826172 .71398928 .6826172 .67900088 .6796112 .644989 .6796112 .61099246 .6796112 .57398989 .6826172 .54100039 .6826172 .5349884 .6826172 .522995 .6826172 .522995 .6626129 .522995 .6516113 .5329895 .6516113 .54100039 .6516113 .59799197 .65060427 .60899356 .62960818 .60899356 .607605 .60899356 .604599 .6069946 .5895996 .60598757 .5866089L.5159912 .22955323C.48199464 .09553528 .36698915 .008529663 .2669983 .008529663 .19898987 .008529663 .14498902 .05253601 .14498902 .1385498 .14498902 .1405487 .14498902 .17254639 .1559906 .21655274L.25299073 .6056061C.2619934 .64160159 .2639923 .6516113 .33699037 .6516113 .36299134 .6516113 .37098695 .6516113 .37098695 .6716156 .37098695 .6826172 .3600006 .6826172 .35699464 .6826172 .32899476 .6826172 .25698854 .6796112 .22898865 .6796112 .19999695 .6796112 .1289978 .6826172 .099990848 .6826172 .09199524 .6826172 .08099365 .6826172 .08099365 .6626129 .08099365 .6516113 .08999634 .6516113 .10899353 .6516113 .11099243 .6516113 .12998963 .6516113 .14698792 .6496124 .16499329 .6476135 .17399597 .64660647 .17399597 .63360598 .17399597 .62760928 .16299439 .5856018 .15699768 .56259158L.1349945 .47459413C.12599182 .4355774 .07798767 .24656677 .07398987 .22755432 .066986087 .19955445 .066986087 .18455506 .066986087 .16955567 .066986087 .047531129 .1579895-.022460938 .2630005-.022460938 .3889923-.022460938 .5130005 .090545658 .54599 .2225647L.6349945 .5776062Z"/>
<path id="font_3_3" d="M.5159912 .31925965C.5159912 .42918397 .5029907 .50813296 .45700074 .5780945 .42599488 .62405398 .3639984 .6640625 .28399659 .6640625 .051986696 .6640625 .051986696 .39120484 .051986696 .31925965 .051986696 .2472992 .051986696-.01953125 .28399659-.01953125 .5159912-.01953125 .5159912 .2472992 .5159912 .31925965M.28399659 .008468628C.23799134 .008468628 .1769867 .035446168 .15699768 .117385867 .14299011 .17634583 .14299011 .25830079 .14299011 .33224488 .14299011 .40519715 .14299011 .4811554 .1579895 .53611758 .1789856 .6150665 .24299622 .63604739 .28399659 .63604739 .33799745 .63604739 .3899994 .6030731 .4079895 .545105 .42399598 .4911499 .4249878 .41918946 .4249878 .33224488 .4249878 .25830079 .4249878 .18434143 .4119873 .12138367 .3919983 .030441285 .32398988 .008468628 .28399659 .008468628Z"/>
<path id="font_1_4" d="M.20399475 0C.43699647 0 .7659912 .17791748 .7659912 .45072938 .7659912 .53967288 .723999 .59562686 .6749878 .62661746 .58898928 .6826172 .49699403 .6826172 .4019928 .6826172 .31599427 .6826172 .25698854 .6826172 .17298889 .64660647 .039993287 .5876312 .020996094 .50468447 .020996094 .4967041 .020996094 .4907074 .024993897 .4887085 .0309906 .4887085 .04699707 .4887085 .069992069 .50268557 .07798767 .5076904 .09899902 .52168276 .101989749 .52767947 .10798645 .5466614 .12199402 .5866394 .1499939 .62161257 .27598573 .62760928 .2599945 .41874696 .20899964 .22787476 .13899231 .052993776 .101989749 .039993287 .07798767 .016998291 .07798767 .0069885256 .07798767 .0009918213 .07899475 0 .100997928 0H.20399475M.20899964 .054992677C.32299806 .33380128 .34399415 .5076904 .35798646 .62760928 .4249878 .62760928 .68099978 .62760928 .68099978 .40776063 .68099978 .21188355 .5049896 .054992677 .2630005 .054992677H.20899964Z"/>
<path id="font_6_2" d="M.5779877 .27427674C.5249939 .3363037 .5089874 .353302 .47099305 .38031007 .4099884 .4243164 .34599305 .4413147 .29100038 .4413147 .16699219 .4413147 .07699585 .33529664 .07699585 .215271 .07699585 .098236087 .16299439-.009765625 .28799439-.009765625 .4269867-.009765625 .5239868 .10424805 .55999758 .15725708 .61299136 .09524536 .6289978 .07823181 .6669922 .051239015 .7279968 .007232666 .7919922-.009765625 .8470001-.009765625 .97099307-.009765625 1.0609894 .09623718 1.0609894 .21626282 1.0609894 .33329774 .97499087 .4413147 .84999087 .4413147 .71099856 .4413147 .6139984 .32730104 .5779877 .27427674M.6100006 .23727417C.6499939 .30229188 .7369995 .4033203 .85899356 .4033203 .96199038 .4033203 1.0329895 .31228639 1.0329895 .21626282 1.0329895 .12025452 .95500186 .04522705 .86299136 .04522705 .769989 .04522705 .70599368 .12124634 .6100006 .23727417M.5279999 .19425965C.48799134 .1292572 .40098573 .02822876 .2789917 .02822876 .17599488 .02822876 .10499573 .11924744 .10499573 .215271 .10499573 .31129457 .18299866 .38630677 .2749939 .38630677 .36799623 .38630677 .43199159 .31028749 .5279999 .19425965Z"/>
<path id="font_1_9" d="M.269989 .085998538C.2849884 .20890808 .2849884 .29884339 .2849884 .3138275 .2849884 .38478089 .2849884 .6826172 .102996829 .6826172 .068984989 .6826172 .033996583 .65460208 .033996583 .64060977 .033996583 .63360598 .038986207 .63360598 .052993776 .63261416 .19898987 .61961367 .21099854 .3907776 .21099854 .27786256 .21099854 .17692566 .19799805 .057006837 .18598938-.009933472 .18399048-.02192688 .18399048-.023925782 .18399048-.027923584 .18399048-.032928468 .18399048-.044921876 .19099427-.044921876 .20199585-.044921876 .44400025 .13995362 .57099917 .3328247 .621994 .4107666 .6599884 .49971009 .6599884 .5666504 .6599884 .6516113 .60398867 .6826172 .5629883 .6826172 .5339966 .6826172 .519989 .61961367 .519989 .6066284 .519989 .5916443 .5249939 .5916443 .5369873 .5906372 .60398867 .5826416 .6159973 .52967837 .6159973 .5057068 .6159973 .4247589 .44198609 .21989441 .269989 .085998538Z"/>
<path id="font_2_8" d="M.31298829 .66430667C.31399537 .66630557 .31698609 .67930606 .31698609 .68029788 .31698609 .68530276 .31298829 .6943054 .30099488 .6943054 .2809906 .6943054 .19799805 .6863098 .17298889 .6843109 .16499329 .68330386 .15098572 .682312 .15098572 .66130068 .15098572 .64730837 .16499329 .64730837 .1769867 .64730837 .22499085 .64730837 .22499085 .64030459 .22499085 .63230898 .22499085 .62532046 .22299195 .61932376 .22099304 .61032107L.07998657 .04425049C.07499695 .026229859 .07499695 .024230957 .07499695 .022232056 .07499695 .007232666 .08699036-.009765625 .10899353-.009765625 .13598633-.009765625 .14898682 .010223389 .15499878 .03224182 .15699768 .036239625 .19999695 .21234131 .20399475 .22636414 .2749939 .21936035 .33198548 .19633484 .33198548 .14430237 .33198548 .13929749 .33198548 .1342926 .32998658 .124298099 .32598878 .10928345 .32598878 .104278568 .32598878 .09327698 .32598878 .022232056 .38398744-.009765625 .43199159-.009765625 .5289917-.009765625 .5589905 .14230347 .5589905 .14331055 .5589905 .15631104 .54599 .15631104 .54299929 .15631104 .5289917 .15631104 .5279999 .15130615 .522995 .1322937 .5109863 .089263919 .48399354 .018234253 .43499757 .018234253 .4079895 .018234253 .3999939 .04324341 .3999939 .07026672 .3999939 .087265018 .3999939 .089263919 .4059906 .11528015 .40699769 .11828613 .41099549 .13529969 .41099549 .14630127 .41099549 .23536682 .29100038 .24937439 .24899292 .25238038 .27799989 .27038575 .31498719 .30340577 .33198548 .31840516 .3829956 .3664093 .43299867 .4133911 .4889984 .4133911 .5009918 .4133911 .5139923 .4104004 .5219879 .40040589 .47898866 .3934021 .46998597 .35940553 .46998597 .34440614 .46998597 .32240296 .4869995 .30740357 .5099945 .30740357 .5369873 .30740357 .5669861 .32940675 .5669861 .37139894 .5669861 .4044037 .54299929 .44140626 .48999024 .44140626 .43299867 .44140626 .3809967 .40040589 .32998658 .3534088 .28799439 .31340028 .25498963 .2823944 .21398926 .26538087L.31298829 .66430667Z"/>
<path id="font_7_1" d="M.3999939 .318985C.42999269 .37994386 .44799806 .4479065 .44799806 .51586917 .44799806 .6128235 .36898805 .6858063 .27198792 .6858063 .19198609 .6858063 .102996829 .6278076 .07899475 .6038208 .050994874 .5758362 .021987915 .54585269 .021987915 .50587466 .021987915 .44691468 .069992069 .41792298 .100997928 .37295533 .10699463 .36495973 .11199951 .35595704 .11199951 .34596253 .11199951 .31298829 .07798767 .28300477 .04798889 .26600648L.06399536 .25502015C.116989139 .28100587 .18099976 .3289795 .18099976 .38793946 .18099976 .4459076 .085998538 .4928894 .085998538 .53785708 .085998538 .5948334 .14498902 .6328125 .19699097 .6328125 .29599 .6328125 .36799623 .54885867 .36799623 .4519043 .36799623 .39793397 .35899354 .3349762 .32499696 .29100038 .2849884 .23802185 .20899964 .18305969 .14399719 .1330719L.03199768 .048095704 .04798889 .037094118C.083999637 .06008911 .115997318 .07707214 .15299988 .07707214 .22200012 .07707214 .2659912 .02810669 .29899598-.026870728L.5019989 .12307739C.5179901 .07107544 .5339966 .022109986 .5649872-.026870728L.70899966 .08506775 .7029877 .10107422C.6859894 .09207153 .6589966 .07608032 .6429901 .07608032 .625 .07608032 .6009979 .1390686 .59098818 .16506958 .58799746 .174057 .58699038 .18605042 .58599856 .197052 .58299258 .25701905 .58099368 .31698609 .58099368 .37794496 .58099368 .47789 .57699587 .6178131 .5970001 .6437988 .6029968 .6538086 .6239929 .6728058 .6389923 .6858063L.6230011 .69680789 .49598695 .6008301C.49798585 .5618439 .5009918 .51586917 .5009918 .4738922V.14906311C.45098878 .11706543 .36898805 .065078739 .35699464 .064086917L.30899049 .112075809C.2869873 .13406372 .2619934 .15507508 .22200012 .15507508L.3999939 .318985Z"/>
<path id="font_2_1" d="M.5469971 .14128113C.6389923 .23632813 .6759949 .36938478 .6759949 .38038636 .6759949 .39338685 .6639862 .39338685 .6589966 .39338685 .644989 .39338685 .644989 .39038087 .6380005 .3683777 .6199951 .3023529 .58699038 .24131775 .54499819 .18730164 .5439911 .20230103 .5419922 .2693329 .5399933 .27833558 .5249939 .37738038 .44999696 .44140626 .34999085 .44140626 .20298767 .44140626 .06199646 .3043518 .06199646 .16429138 .06199646 .072250369 .1289978-.009765625 .24499512-.009765625 .33699037-.009765625 .41999818 .032226564 .47599793 .07525635 .49899293 .0022277833 .5499878-.009765625 .5799866-.009765625 .6380005-.009765625 .673996 .039230348 .673996 .0602417 .673996 .072250369 .6619873 .072250369 .6569977 .072250369 .6439972 .072250369 .6419983 .06825256 .6399994 .0622406 .6259918 .024230957 .59498599 .018234253 .58299258 .018234253 .56900027 .018234253 .5519867 .018234253 .5469971 .14128113M.46899415 .10726929C.37098695 .027236939 .28599549 .018234253 .24798584 .018234253 .18199158 .018234253 .14498902 .0622406 .14498902 .12927246 .14498902 .15829468 .15899658 .26733399 .21099854 .33636476 .25698854 .39639283 .31399537 .4133911 .34899903 .4133911 .42900086 .4133911 .45199586 .33636476 .45999146 .27433778 .46598817 .23132324 .46398927 .16029358 .46899415 .10726929Z"/>
<path id="font_1_8" d="M.48599244 .62060549H.6519928C.7839966 .62060549 .83399966 .6967926 .83399966 .7097931 .83399966 .7147827 .8299866 .7167969 .82499697 .7167969 .81399539 .7167969 .7879944 .7067871 .7630005 .6886902 .7549896 .6826172 .7529907 .6826172 .73399356 .6826172H.29699708C.17298889 .6826172 .033996583 .5756378 .033996583 .49369813 .033996583 .48770143 .033996583 .4817047 .041992189 .4817047 .06599426 .4817047 .1289978 .51467898 .1309967 .5386658 .13198853 .5556488 .13398743 .574646 .1539917 .6006317 .1639862 .61260989 .17199707 .62060549 .21598816 .62060549H.4149933C.397995 .60961917 .3939972 .594635 .3919983 .5846405L.27799989 .13194275C.2659912 .082977298 .24499512 .019989014 .21598816-.045013429 .20999146-.057006837 .20999146-.059005739 .20999146-.06100464 .20999146-.06700134 .21398926-.06800842 .21899414-.06800842 .23899842-.06800842 .28799439-.041000368 .30299378-.020004273 .30899049-.010009766 .35299684 .09196472 .37399293 .1749115L.48599244 .62060549Z"/>
<path id="font_2_2" d="M.6329956 .5659027C.6329956 .65405276 .5569916 .7050934 .46899415 .7050934 .33198548 .7050934 .23098755 .5488739 .20599365 .44769288L.04899597-.18234253C.04699707-.18934632 .056991579-.19433594 .06298828-.19433594 .07199097-.19433594 .07998657-.19334412 .08198547-.18734741L.14898682 .08015442C.16999817 .034240724 .21798706-.008728027 .29899598-.008728027 .43899537-.008728027 .5970001 .09213257 .5970001 .24482727 .5970001 .30371095 .56999209 .36358644 .5189972 .3966217 .56799319 .42765809 .6329956 .48475648 .6329956 .5659027M.43499757 .39762879C.41999818 .39460755 .41299439 .39059449 .38398744 .39059449 .36799623 .39059449 .34399415 .39160157 .33699037 .39561463 .34700013 .4016571 .375 .40264894 .38398744 .40264894 .39898683 .40264894 .42099 .4016571 .43499757 .39762879M.5669861 .58392336C.5669861 .530838 .54100039 .45269776 .47898866 .41766358 .45999146 .42366029 .44099427 .43066407 .3849945 .43066407 .34999085 .43066407 .2999878 .4286499 .2999878 .39259339 .2999878 .3675995 .33099366 .36358644 .38198854 .36358644 .41600038 .36358644 .44599916 .3685913 .47698976 .377594 .5069885 .35661317 .522995 .3156891 .522995 .2717743 .522995 .12705994 .42399598 .01927185 .3019867 .01927185 .22499085 .01927185 .16999817 .06617737 .16999817 .14501953 .16999817 .15499878 .17098999 .16497803 .17298889 .17396546L.23899842 .43966676C.2630005 .5348358 .35099793 .6770935 .46699525 .6770935 .526001 .6770935 .5669861 .6450348 .5669861 .58392336Z"/>
<path id="font_2_4" d="M.29499818 .43501283C.14498902 .3970337 .06098938 .26811219 .06098938 .16317749 .06098938 .057250978 .14199829-.01171875 .24099732-.01171875 .3619995-.01171875 .45599366 .13020325 .45599366 .2761078 .45599366 .37304688 .4039917 .43000794 .37298585 .46398927 .33599855 .5059662 .26098634 .58792117 .26098634 .6338806 .26098634 .6468811 .2749939 .67585757 .31599427 .67585757 .34999085 .67585757 .37799073 .65986636 .3999939 .6478729 .40899659 .6428833 .44499208 .62190249 .45999146 .62190249 .48399354 .62190249 .5019989 .6438751 .5019989 .66386416 .5019989 .68885806 .4889984 .69085696 .43499757 .7018585 .4229889 .7038574 .3769989 .7138672 .34498597 .7138672 .269989 .7138672 .22799683 .66986086 .22799683 .608902 .22799683 .5559387 .2599945 .49497987 .29499818 .43501283M.31199647 .40803529C.33999635 .36305238 .37599183 .3050995 .37599183 .23313904 .37599183 .15118408 .32699586 .016281128 .24299622 .016281128 .18798828 .016281128 .13398743 .052246095 .13398743 .13519287 .13398743 .20115662 .17199707 .37405396 .31199647 .40803529Z"/>
<path id="font_2_5" d="M.34899903 .22375489C.3639984 .22375489 .3829956 .22375489 .3829956 .24275208 .3829956 .25976563 .36799623 .25976563 .34899903 .25976563H.16999817C.19999695 .35069276 .2649994 .39465333 .35299684 .39465333H.3909912C.40699769 .39465333 .42599488 .39465333 .42599488 .4136505 .42599488 .43066407 .4119873 .43066407 .3929901 .43066407H.34999085C.21699524 .43066407 .067993167 .33769227 .067993167 .18583679 .067993167 .069107059 .15699768-.009765625 .272995-.009765625 .30299378-.009765625 .34498597-.004776001 .397995 .02520752 .41799928 .03617859 .41999818 .03918457 .41999818 .045166017 .41999818 .04815674 .41999818 .06512451 .40499879 .06512451 .40098573 .06512451 .39898683 .06411743 .3929901 .060134889 .35798646 .03718567 .31599427 .018234253 .2749939 .018234253 .23498535 .018234253 .1519928 .03817749 .1519928 .1519165 .1519928 .16589356 .1519928 .18583679 .16099549 .22375489H.34899903Z"/>
<path id="font_2_3" d="M.44699098 .1402893C.44198609 .19831848 .4079895 .44140626 .24499512 .44140626 .18598938 .44140626 .1349945 .4093933 .10699463 .38339234 .04598999 .3283844 .033996583 .26435853 .033996583 .26135255 .033996583 .24934387 .04699707 .24934387 .049987794 .24934387 .06298828 .24934387 .06399536 .25134278 .068984989 .26635743 .08999634 .32537843 .1639862 .36140443 .23098755 .36140443 .3919983 .36140443 .41299439 .20031739 .41299439 .0982666 .41299439 .04824829 .4099884 .037231447 .4059906 .026229859 .3829956-.048797609 .35299684-.15985108 .35299684-.18988037 .35299684-.20088196 .35699464-.21386719 .36999513-.21386719 .3769989-.21386719 .3880005-.21386719 .4039917-.16186524 .41600038-.12283325 .43499757-.048797609 .44299317 .023239136 .44699098 .058242799 .5029907 .1933136 .5239868 .24133301 .5379944 .27235414 .5589905 .3193817 .60598757 .4064026 .60899356 .4113922 .61099246 .41540528 .61099246 .41940309 .61099246 .43139649 .59799197 .43139649 .59498599 .43139649 .59199526 .43139649 .58299258 .43139649 .5799866 .4263916 .56799319 .4053955 .49198915 .26234437 .44699098 .1402893Z"/>
<path id="font_4_1" d="M.6769867 .16200257H.6519928C.6469879 .13600159 .6429901 .11299133 .6339874 .08898926 .6289978 .07299805 .6259918 .06498718 .56799319 .06498718H.48799134C.5009918 .1210022 .5319977 .16900635 .57699587 .23501587 .6239929 .306015 .6649933 .37503053 .6649933 .45404054 .6649933 .59306338 .5299988 .7050781 .36099244 .7050781 .18899536 .7050781 .055999757 .5910492 .055999757 .45404054 .055999757 .37503053 .09700012 .306015 .14399719 .23501587 .18798828 .16900635 .21998596 .1210022 .23298645 .06498718H.15299988C.09498596 .06498718 .09199524 .07299805 .08699036 .08799744 .07899475 .11099243 .07398987 .13700867 .068984989 .16200257H.04399109L.07699585 0H.23699951C.25898744 0 .2619934 0 .2619934 .020996094 .2619934 .09098816 .23098755 .17900086 .20799256 .24301148 .18699646 .3010254 .15899658 .3800354 .15899658 .45503236 .15899658 .6150665 .2689972 .68307498 .3600006 .68307498 .45599366 .68307498 .56199648 .61105349 .56199648 .45503236 .56199648 .3800354 .5349884 .3040161 .5059967 .22201538 .4909973 .18000794 .45899964 .08999634 .45899964 .020996094 .45899964 0 .46199037 0 .4850006 0H.6439972L.6769867 .16200257Z"/>
<path id="font_8_1" d="M.21998596-.16992188C.21699524-.10090637 .21598816-.031906129 .21598816 .037109376 .2599945 .03010559 .29899598 .008102417 .33399964-.01789856L.47999574 .08909607C.5039978 .14804077 .5049896 .220932 .5049896 .2818451 .5049896 .32577516 .5019989 .36972047 .49899293 .41368104 .45399476 .4296875 .40899659 .44969178 .37098695 .47769166 .31999208 .4406891 .2689972 .4046936 .21598816 .37171937 .21699524 .3836975 .21798706 .4046936 .21798706 .40568543 .19400025 .4276886 .16799927 .45768739 .16799927 .48677064 .16799927 .5029297 .1769867 .5170746 .18798828 .52908328L.17199707 .53808596C.13899231 .5089874 .08198547 .4506836 .08198547 .4216919 .08198547 .41168214 .09599304 .39768983 .13198853 .3517456V.10510254C.116989139 .09510803 .07598877 .06109619 .04899597 .038101198L.06098938 .024093628C.08099365 .040100099 .10598755 .04710388 .1309967 .04710388 .1309967-.007904053 .125-.123916629 .12098694-.20692444L.1329956-.21392823 .21998596-.16992188M.21699524 .34675599C.24598694 .36372376 .27398683 .3796997 .30599977 .39068605 .33898927 .3807068 .3829956 .36572267 .4099884 .35273744 .4139862 .3117981 .41600038 .27085877 .41600038 .22991944 .41600038 .13505554 .4059906 .082107547 .3889923 .052108766 .33499146 .07609558 .26098634 .10609436 .21699524 .10609436V.34675599Z"/>
<path id="font_3_7" d="M.35598756 .68333438V.6473236C.4229889 .6473236 .43099977 .6403351 .43099977 .59135439V.38438417C.3939972 .4203949 .34599305 .44140626 .29100038 .44140626 .1579895 .44140626 .04598999 .34136964 .04598999 .21531677 .04598999 .09025574 .1519928-.009765625 .2789917-.009765625 .36099244-.009765625 .4099884 .034240724 .4269867 .052246095V-.009765625L.58099368 .00022888184V.036239625C.5139923 .036239625 .5059967 .04324341 .5059967 .09225464V.69433596L.35598756 .68333438M.4269867 .105270389C.40098573 .058242799 .34999085 .018234253 .2849884 .018234253 .22898865 .018234253 .18899536 .051239015 .16899109 .08026123 .14898682 .11026001 .13699341 .15028382 .13699341 .21430969 .13699341 .23731995 .13699341 .3123474 .17799378 .359375 .21798706 .40438844 .2669983 .4133911 .29599 .4133911 .34399415 .4133911 .3869934 .39138795 .4149933 .3553772 .4269867 .33937074 .4269867 .33836366 .4269867 .3193512V.105270389Z"/>
<path id="font_3_8" d="M.43998719 .22851563C.46099855 .22851563 .46798707 .22851563 .46798707 .25050355 .46798707 .33839417 .4189911 .44628907 .269989 .44628907 .13899231 .44628907 .038986207 .34239198 .038986207 .21949768 .038986207 .092315677 .1499939-.009765625 .2829895-.009765625 .41799928-.009765625 .46798707 .09832764 .46798707 .12036133 .46798707 .12435913 .46598817 .13438416 .45098878 .13438416 .43798829 .13438416 .43598939 .12837219 .43299867 .11836243 .4019928 .037246705 .32598878 .022232056 .2899933 .022232056 .24299622 .022232056 .19799805 .043258668 .16799927 .08131409 .1309967 .12837219 .12998963 .18945313 .12998963 .22851563H.43998719M.1309967 .25450135C.14199829 .39530946 .23199463 .41827394 .269989 .41827394 .3929901 .41827394 .39698792 .27947999 .397995 .25450135H.1309967Z"/>
<path id="font_3_9" d="M.20599365 .39465333H.33099366V.43066407H.20199585V.54286196C.20199585 .63401797 .2559967 .6760864 .29899598 .6760864 .30799867 .6760864 .31799317 .6740875 .32798768 .67108157 .31399537 .6630707 .30599977 .64704897 .30599977 .63101199 .30599977 .6039734 .32499696 .5849304 .35198976 .5849304 .3789978 .5849304 .397995 .6039734 .397995 .63101199 .397995 .6740875 .35499574 .70410159 .2999878 .70410159 .22099304 .70410159 .1309967 .6480408 .1309967 .54286196V.43066407H.04499817V.39465333H.1309967V.078948978C.1309967 .035995485 .12098694 .035995485 .055999757 .035995485V0C.06098938 0 .1289978 .0039978029 .16999817 .0039978029 .21299744 .0039978029 .25698854 .0019989014 .2999878 0V.035995485H.27999879C.20599365 .035995485 .20599365 .04698181 .20599365 .080947879V.39465333Z"/>
<path id="font_3_1" d="M.35499574 .75C.16499329 .61598208 .114990238 .40397645 .114990238 .25097657 .114990238 .10997009 .15699768-.10902405 .35499574-.24902344 .36299134-.24902344 .375-.24902344 .375-.23703003 .375-.23103333 .37199403-.22903443 .36499024-.22203064 .23199463-.10203552 .18299866 .067977908 .18299866 .24996948 .18299866 .519989 .28599549 .65197756 .36799623 .72598269 .37199403 .7299957 .375 .73298647 .375 .73799136 .375 .75 .36299134 .75 .35499574 .75Z"/>
<path id="font_8_2" d="M.28799439 .6407318 .1639862 .55773928V.3857422H.084991458L.066986087 .35073854H.1659851C.1639862 .2537384 .1639862 .06272888 .1639862 .06173706L.269989-.021270752 .41999818 .07772827 .41600038 .099731449C.37998963 .07673645 .35598756 .067733768 .33999635 .067733768 .31799317 .067733768 .28199769 .098739627 .25299073 .12272644L.2519989 .35073854H.34999085L.36799623 .3857422H.25099183C.25099183 .45072938 .2519989 .5177307 .2639923 .58174136 .2649994 .58872988 .2679901 .59573367 .272995 .6007385L.30299378 .6267395 .28799439 .6407318Z"/>
<path id="font_9_2" d="M.5099945 .6244507C.5099945 .6474457 .49299623 .66744998 .46598817 .66744998 .43499757 .66744998 .4039917 .6374512 .4039917 .6074524 .4039917 .5834503 .4229889 .5644531 .44799806 .5644531 .48199464 .5644531 .5099945 .5964508 .5099945 .6244507M.2919922-.044952394C.272995-.12097168 .20999146-.17105103 .14898682-.17105103 .13198853-.17105103 .12098694-.16796875 .11299133-.16596985 .13699341-.15197754 .14399719-.12597656 .14399719-.112976077 .14399719-.09597778 .13198853-.07197571 .09899902-.07197571 .06498718-.07197571 .036987306-.10298157 .036987306-.13597107 .036987306-.1790924 .08198547-.20507813 .1499939-.20507813 .21798706-.20507813 .34799195-.17002869 .3789978-.045959474L.46899415 .31230165C.47099305 .3223114 .47399903 .3313141 .47399903 .34532167 .47399903 .40237428 .42099 .4423828 .35099793 .4423828 .22999573 .4423828 .1559906 .30729676 .1559906 .28729249 .1559906 .27326966 .17199707 .27326966 .1769867 .27326966 .19198609 .27326966 .19400025 .2772827 .19898987 .28729249 .24499512 .38536073 .31298829 .40837098 .34700013 .40837098 .3869934 .40837098 .3889923 .37234498 .3889923 .35533143 .3889923 .34132386 .3880005 .33732606 .38598634 .3293152L.2919922-.044952394Z"/>
<path id="font_10_1" d="M.8799896 .2223053C.8959961 .2223053 .9229889 .2223053 .9229889 .25030519 .9229889 .2783203 .8959961 .2783203 .8799896 .2783203H.20298767C.18699646 .2783203 .1599884 .2783203 .1599884 .25030519 .1599884 .2223053 .18699646 .2223053 .20298767 .2223053H.8799896Z"/>
<path id="font_11_2" d="M.397995 .63591006C.397995 .6660156 .394989 .6660156 .3619995 .6660156 .29100038 .6016083 .17999268 .6016083 .1599884 .6016083H.14299011V.5576172H.1599884C.18299866 .5576172 .24798584 .5606079 .30599977 .58561709V.08596802C.30599977 .054977418 .30599977 .04399109 .19999695 .04399109H.1499939V0C.20498657 .0039978029 .2939911 .0039978029 .35198976 .0039978029 .4099884 .0039978029 .49899293 .0039978029 .55400088 0V.04399109H.5039978C.397995 .04399109 .397995 .054977418 .397995 .08596802V.63591006Z"/>
<path id="font_3_2" d="M.08999634 .75C.08299255 .75 .070999149 .75 .070999149 .73799136 .070999149 .73298647 .07398987 .7299957 .07998657 .72299197 .1659851 .64398196 .2619934 .5089874 .2619934 .25097657 .2619934 .04197693 .19699097-.11602783 .08898926-.21403504 .07199097-.23103333 .070999149-.23202515 .070999149-.23703003 .070999149-.24203491 .07398987-.24902344 .083999637-.24902344 .09599304-.24902344 .19099427-.18302918 .25698854-.058029176 .30099488 .024978638 .32998658 .13298035 .32998658 .24996948 .32998658 .39097596 .28799439 .60998538 .08999634 .75Z"/>
<path id="font_11_1" d="M.6009979 .31976319C.6009979 .3918152 .6009979 .6660156 .33999635 .6660156 .07899475 .6660156 .07899475 .3918152 .07899475 .31976319 .07899475 .2467041 .07899475-.022460938 .33999635-.022460938 .6009979-.022460938 .6009979 .2467041 .6009979 .31976319M.33999635 .010528564C.30299378 .010528564 .21899414 .023544312 .19400025 .12461853 .17999268 .17866516 .1789856 .24971009 .1789856 .33177186 .1789856 .405838 .1789856 .47488404 .19499207 .5319214 .21998596 .6159973 .29699708 .63301089 .33999635 .63301089 .4139862 .63301089 .46699525 .5949707 .4869995 .5249176 .5009918 .47387696 .5009918 .39082337 .5009918 .33177186 .5009918 .26371766 .5009918 .18266297 .48599244 .12261963 .45999146 .025543213 .37998963 .010528564 .33999635 .010528564Z"/>
<path id="font_6_1" d="M.8149872 .24998474C.8149872 .45495606 .647995 .6189575 .44599916 .6189575 .24198914 .6189575 .07699585 .45196534 .07699585 .25097657 .07699585 .04598999 .24398804-.117996219 .44599916-.117996219 .6499939-.117996219 .8149872 .04899597 .8149872 .24998474M.22200012 .4989624C.2630005 .5359497 .33999635 .58496096 .44599916 .58496096 .5519867 .58496096 .6289978 .5359497 .66999819 .4989624L.44599916 .27497865 .22200012 .4989624M.19799805 .026992798C.14299011 .083999637 .11099243 .16798401 .11099243 .24998474 .11099243 .33796693 .1459961 .41996766 .19799805 .47395326L.42199708 .25097657 .19799805 .026992798M.69400027 .47395326C.7489929 .41696168 .7809906 .3329773 .7809906 .25097657 .7809906 .16297913 .74598696 .08099365 .69400027 .026992798L.46998597 .24998474 .69400027 .47395326M.66999819 .0019989014C.6289978-.035003663 .5519867-.083984378 .44599916-.083984378 .33999635-.083984378 .2630005-.035003663 .22200012 .0019989014L.44599916 .22598267 .66999819 .0019989014Z"/>
<path id="font_2_10" d="M.24598694 .39465333H.34799195C.36698915 .39465333 .37998963 .39465333 .37998963 .4166565 .37998963 .43066407 .36698915 .43066407 .34999085 .43066407H.25498963L.2919922 .57850649C.29299928 .58351138 .29499818 .588501 .29499818 .5924988 .29499818 .6104889 .2809906 .6244812 .26098634 .6244812 .23599243 .6244812 .22099304 .6074829 .21398926 .58151248 .20698548 .5565338 .21998596 .6044922 .17599488 .43066407H.07398987C.054992677 .43066407 .041992189 .43066407 .041992189 .4086609 .041992189 .39465333 .053985597 .39465333 .07199097 .39465333H.16699219L.10798645 .15901184C.101989749 .13404846 .09298706 .098098758 .09298706 .085128787 .09298706 .0262146 .14299011-.009765625 .19999695-.009765625 .31098939-.009765625 .37399293 .13005066 .37399293 .14303589 .37399293 .15602112 .36099244 .15602112 .35798646 .15602112 .34599305 .15602112 .34498597 .15402222 .33699037 .13703919 .30899049 .074142459 .2579956 .018234253 .20298767 .018234253 .18199158 .018234253 .16799927 .031204224 .16799927 .06715393 .16799927 .07713318 .17199707 .098098758 .17399597 .10809326L.24598694 .39465333Z"/>
<path id="font_9_1" d="M.58099368 .59687808C.58898928 .62786868 .58898928 .6298828 .6309967 .6298828H.73799136C.84999087 .6298828 .8639984 .59887698 .8639984 .53689578 .8639984 .52989199 .8639984 .5108948 .8569946 .46290589L.85598757 .4539032C.85598757 .4439087 .8619995 .4359131 .8769989 .4359131 .8959961 .4359131 .897995 .44491578 .8999939 .46290589L.9249878 .6418762C.9269867 .6518707 .9269867 .6538696 .9269867 .6578827 .9269867 .674881 .9109955 .674881 .8939972 .674881H.19299317C.16699219 .674881 .1659851 .674881 .1579895 .6538696L.09199524 .46990968C.09098816 .46791078 .085998538 .4539032 .085998538 .45291139 .085998538 .44691468 .08999634 .4359131 .10699463 .4359131 .12298584 .4359131 .12399292 .4389038 .1329956 .46290589 .17799378 .58187869 .20698548 .6298828 .34298707 .6298828H.45098878C.45899964 .6298828 .47299195 .6298828 .48298646 .62786868V.62187197L.34899903 .08699036C.34098817 .054992677 .33799745 .04499817 .23298645 .04499817H.21099854C.18998719 .04499817 .18899536 .04399109 .18399048 .039993287 .1789856 .034988405 .1749878 .023986817 .1749878 .016998291 .1749878 .010986328 .1789856 0 .19499207 0 .22499085 0 .25698854 .0029907227 .2869873 .0029907227 .31799317 .0029907227 .34899903 .0039978029 .37998963 .0039978029 .4119873 .0039978029 .44499208 .0029907227 .47698976 .0029907227 .5069885 .0029907227 .5389862 0 .56900027 0 .57598879 0 .59498599 0 .59498599 .027999878 .59498599 .04499817 .5799866 .04499817 .5629883 .04499817H.54100039C.5149994 .04499817 .48799134 .04499817 .46199037 .049987794 .45399476 .050994874 .44799806 .051986696 .44799806 .06298828 .44799806 .067993167 .44799806 .069992069 .45199586 .083984378L.58099368 .59687808Z"/>
<path id="font_2_9" d="M.43399049 .08125305C.42900086 .06124878 .41999818 .027236939 .41999818 .022232056 .41999818 .00022888184 .43798829-.009765625 .45399476-.009765625 .47200013-.009765625 .48799134 .0032196046 .49299623 .01222229 .49798585 .021224976 .5059967 .053237916 .5109863 .07424927 .5159912 .09326172 .5269928 .13928223 .5329895 .16429138 .5389862 .18629456 .54499819 .20831299 .5499878 .23132324 .5609894 .27433778 .5609894 .27633668 .58099368 .3073578 .61299136 .35636903 .6629944 .4133911 .7409973 .4133911 .7969971 .4133911 .7999878 .36738587 .7999878 .34336854 .7999878 .28334046 .7569885 .17228699 .7409973 .13027954 .7299957 .102264408 .7259979 .09326172 .7259979 .07624817 .7259979 .023223877 .769989-.009765625 .82099917-.009765625 .92099-.009765625 .96499636 .12828064 .96499636 .14328003 .96499636 .15628052 .95199587 .15628052 .94898989 .15628052 .93499758 .15628052 .9339905 .15028382 .9299927 .13928223 .9069977 .059249879 .8639984 .018234253 .82398989 .018234253 .8029938 .018234253 .798996 .032226564 .798996 .053237916 .798996 .07624817 .80400088 .089263919 .82199099 .13427735 .83399966 .1652832 .875 .2713318 .875 .32736207 .875 .34336854 .875 .38539125 .83799746 .4143982 .82099917 .42739869 .7919922 .44140626 .7449951 .44140626 .6549988 .44140626 .59999087 .38238526 .56799319 .34036256 .55999758 .42539979 .4889984 .44140626 .43798829 .44140626 .35499574 .44140626 .29899598 .39038087 .2689972 .3503723 .2619934 .41940309 .20298767 .44140626 .1619873 .44140626 .11898804 .44140626 .09599304 .4104004 .08299255 .38739015 .06098938 .3503723 .04699707 .29335023 .04699707 .28834535 .04699707 .27534486 .06098938 .27534486 .06399536 .27534486 .07798767 .27534486 .07899475 .27833558 .085998538 .3053589 .100997928 .36437989 .11999512 .4133911 .15899658 .4133911 .18499756 .4133911 .19198609 .39138795 .19198609 .36437989 .19198609 .34536744 .18299866 .3083496 .17599488 .28134156 .16899109 .2543335 .15899658 .21331787 .1539917 .19129944L.12199402 .06324768C.117996219 .050247194 .11199951 .025222779 .11199951 .022232056 .11199951 .00022888184 .12998963-.009765625 .1459961-.009765625 .1639862-.009765625 .17999268 .0032196046 .18499756 .01222229 .18998719 .021224976 .19799805 .053237916 .20298767 .07424927 .20799256 .09326172 .21899414 .13928223 .22499085 .16429138 .23098755 .18629456 .23699951 .20831299 .24198914 .23132324 .25299073 .27233888 .25498963 .28033448 .28399659 .32136537 .31199647 .3613739 .35899354 .4133911 .43399049 .4133911 .49198915 .4133911 .49299623 .36238099 .49299623 .34336854 .49299623 .31835938 .48999024 .3053589 .47599793 .24932862L.43399049 .08125305Z"/>
<path id="font_1_3" d="M.44400025 .24998474C.44400025 .35688783 .35499574 .44381715 .25 .44381715 .14199829 .44381715 .054992677 .35488893 .054992677 .24998474 .054992677 .14407349 .14199829 .056137086 .25 .056137086 .35499574 .056137086 .44400025 .14308167 .44400025 .24998474Z"/>
<path id="font_1_2" d="M.44400025 .24998474C.44400025 .357193 .35499574 .44429017 .25 .44429017 .14199829 .44429017 .054992677 .3551941 .054992677 .24998474 .054992677 .14378357 .14199829 .05569458 .25 .05569458 .35499574 .05569458 .44400025 .14279175 .44400025 .24998474M.25 .095703128C.16299439 .095703128 .09498596 .16583252 .09498596 .24998474 .09498596 .33415223 .1639862 .40429688 .25 .40429688 .33299256 .40429688 .4039917 .33615113 .4039917 .24998474 .4039917 .16383362 .33299256 .095703128 .25 .095703128Z"/>
<path id="font_3_6" d="M.5019989 .34111024C.59199526 .36210633 .6819916 .42100526 .6819916 .5018616 .6819916 .6016846 .5499878 .6826172 .394989 .6826172H.057998659V.64660647H.08198547C.15899658 .64660647 .16099549 .6366272 .16099549 .6016846V.08100891C.16099549 .04699707 .15899658 .035995485 .08198547 .035995485H.057998659V0C.05899048 0 .16499329 .0039978029 .20599365 .0039978029 .24798584 .0039978029 .30499269 .0019989014 .35499574 0V.035995485H.33099366C.2539978 .035995485 .2519989 .04598999 .2519989 .08100891V.328125H.3849945C.40299989 .328125 .45498658 .328125 .49899293 .28715516 .5339966 .25619508 .5339966 .23121643 .5339966 .16429138 .5339966 .099365238 .5339966 .058410646 .5799866 .020446778 .6230011-.014541626 .6819916-.01953125 .70999148-.01953125 .79499819-.01953125 .81700137 .061401369 .81700137 .09136963 .81700137 .098358158 .81700137 .11035156 .7999878 .11035156 .7849884 .11035156 .7839966 .101364139 .7829895 .09136963 .7779999 .033432008 .7449951 .008468628 .71398928 .008468628 .6569977 .008468628 .6489868 .06739807 .6369934 .15829468 .6259918 .23822022 .6230011 .25419618 .59399417 .28715516 .58399966 .29811097 .55599978 .32411195 .5019989 .34111024M.38198854 .35612489H.2519989V.6076813C.2519989 .6356354 .25299073 .6426239 .2789917 .6456146 .2869873 .64660647 .32099916 .64660647 .34199525 .64660647 .43798829 .64660647 .57499697 .64660647 .57499697 .5018616 .57499697 .39006043 .48799134 .35612489 .38198854 .35612489Z"/>
<path id="font_3_10" d="M.27799989-.15834046C.21299744-.15834046 .20298767-.15834046 .20298767-.11517334V.048233034C.20799256 .04324341 .25498963-.009765625 .33898927-.009765625 .47099305-.009765625 .58399966 .089263919 .58399966 .2163086 .58399966 .33937074 .48199464 .44140626 .35499574 .44140626 .2979889 .44140626 .23999024 .4203949 .19898987 .38038636V.44140626L.04899597 .43040467V.39439393C.11898804 .39439393 .12399292 .38938905 .12399292 .34736634V-.11517334C.12399292-.15834046 .11399841-.15834046 .04899597-.15834046V-.19433594C.050994874-.19433594 .12098694-.19033814 .16299439-.19033814 .19999695-.19033814 .2689972-.19334412 .27799989-.19433594V-.15834046M.20298767 .33335877C.23298645 .38339234 .29100038 .4093933 .34399415 .4093933 .42799378 .4093933 .49299623 .32136537 .49299623 .2163086 .49299623 .102264408 .41799928 .018234253 .33299256 .018234253 .24499512 .018234253 .20599365 .09526062 .20298767 .101257327V.33335877Z"/>
<path id="font_12_1" d="M.1309967 .39611817C.1309967 .4131317 .1309967 .43112184 .11099243 .43112184 .09098816 .43112184 .09098816 .41212464 .09098816 .39512635V.013015747C.09098816-.003982544 .09098816-.021987915 .11099243-.021987915 .1309967-.021987915 .1309967-.003982544 .1309967 .013015747V.39611817Z"/>
<path id="font_3_5" d="M.2749939 .660614C.2659912 .6826172 .2579956 .6826172 .23699951 .6826172H.06199646V.64660647H.085998538C.16299439 .64660647 .16499329 .63661196 .16499329 .6016388V.107940677C.16499329 .080963138 .16499329 .035995485 .06199646 .035995485V0C.102996829 .0029907227 .14299011 .0039978029 .18399048 .0039978029 .22499085 .0039978029 .2649994 .0029907227 .30599977 0V.035995485C.20298767 .035995485 .20298767 .080963138 .20298767 .107940677V.63461306L.20399475 .6356201 .46398927 .022994996C.46899415 .010986328 .47399903 0 .4889984 0 .49598695 0 .5049896 .0029907227 .5130005 .020996094L.7769928 .6456146 .7779999 .64460757V.080963138C.7779999 .04698181 .776001 .035995485 .69898989 .035995485H.6749878V0C.72299197 .0019989014 .7789917 .0039978029 .81999209 .0039978029 .86099246 .0039978029 .9169922 .0019989014 .96499636 0V.035995485H.94099429C.8639984 .035995485 .8619995 .04598999 .8619995 .080963138V.6016388C.8619995 .6356201 .8639984 .64660647 .94099429 .64660647H.96499636V.6826172H.79100039C.7709961 .6826172 .7619934 .6826172 .7539978 .6626129L.5139923 .095962528 .2749939 .660614Z"/>
<path id="font_3_11" d="M.20098877 .39465333H.35699464V.43066407H.20098877V.6147156H.16699219C.1659851 .5246887 .125 .42565919 .0289917 .4226532V.39465333H.12199402V.1250763C.12199402 .01322937 .20599365-.009765625 .2619934-.009765625 .32899476-.009765625 .375 .047195436 .375 .12606812V.1809845H.34098817V.12705994C.34098817 .059173585 .30899049 .022232056 .269989 .022232056 .20098877 .022232056 .20098877 .10609436 .20098877 .124069217V.39465333Z"/>
</defs>
<use data-text="&#x00b7;" xlink:href="#font_1_1" transform="matrix(9.9626,0,0,-9.9626,4.2890007,14.175003)"/>
<use data-text="&#x00b7;" xlink:href="#font_1_1" transform="matrix(9.9626,0,0,-9.9626,8.722359,14.175003)"/>
<use data-text="&#x00b7;" xlink:href="#font_1_1" transform="matrix(9.9626,0,0,-9.9626,13.145752,14.175003)"/>
<use data-text="P" xlink:href="#font_1_7" transform="matrix(9.9626,0,0,-9.9626,17.57911,14.175003)"/>
<use data-text="j" xlink:href="#font_2_7" transform="matrix(6.9738,0,0,-6.9738,24.501999,15.669006)"/>
<use data-text="P" xlink:href="#font_1_7" transform="matrix(9.9626,0,0,-9.9626,106.09701,14.175003)"/>
<use data-text="1" xlink:href="#font_3_4" transform="matrix(6.9738,0,0,-6.9738,113.02601,15.669006)"/>
<use data-text="J" xlink:href="#font_1_5" transform="matrix(9.9626,0,0,-9.9626,152.102,14.175003)"/>
<use data-text="T" xlink:href="#font_4_5" transform="matrix(9.9626,0,0,-9.9626,199.052,14.175003)"/>
<use data-text="S" xlink:href="#font_4_4" transform="matrix(9.9626,0,0,-9.9626,247.707,14.175003)"/>
<use data-text="M" xlink:href="#font_1_6" transform="matrix(9.9626,0,0,-9.9626,379.443,14.175003)"/>
<use data-text="C" xlink:href="#font_2_6" transform="matrix(6.9738,0,0,-6.9738,391.40699,15.669006)"/>
<use data-text="(" xlink:href="#font_4_2" transform="matrix(9.9626,0,0,-9.9626,398.10798,14.175003)"/>
<use data-text="&#x03b9;" xlink:href="#font_5_1" transform="matrix(9.9626,0,0,-9.9626,401.98344,14.175003)"/>
<use data-text=")" xlink:href="#font_4_3" transform="matrix(9.9626,0,0,-9.9626,405.5102,14.175003)"/>
<use data-text="U" xlink:href="#font_5_2" transform="matrix(9.9626,0,0,-9.9626,61.407007,49.058)"/>
<use data-text="1" xlink:href="#font_3_4" transform="matrix(6.9738,0,0,-6.9738,68.20901,50.552003)"/>
<use data-text="U" xlink:href="#font_5_2" transform="matrix(9.9626,0,0,-9.9626,106.16,49.058)"/>
<use data-text="0" xlink:href="#font_3_3" transform="matrix(6.9738,0,0,-6.9738,112.963008,50.552003)"/>
<use data-text="P" xlink:href="#font_1_7" transform="matrix(9.9626,0,0,-9.9626,150.699,49.058)"/>
<use data-text="0" xlink:href="#font_3_3" transform="matrix(6.9738,0,0,-6.9738,157.628,50.552003)"/>
<use data-text="D" xlink:href="#font_1_4" transform="matrix(9.9626,0,0,-9.9626,194.587,49.058)"/>
<use data-text="&#x221e;" xlink:href="#font_6_2" transform="matrix(6.9738,0,0,-6.9738,202.272,50.552003)"/>
<use data-text="V" xlink:href="#font_1_9" transform="matrix(9.9626,0,0,-9.9626,243.20201,49.058)"/>
<use data-text="&#x221e;" xlink:href="#font_6_2" transform="matrix(6.9738,0,0,-6.9738,249.307,50.552003)"/>
<use data-text="U" xlink:href="#font_5_2" transform="matrix(9.9626,0,0,-9.9626,290.86204,49.058)"/>
<use data-text="0" xlink:href="#font_3_3" transform="matrix(6.9738,0,0,-6.9738,297.66505,50.552003)"/>
<use data-text="U" xlink:href="#font_5_2" transform="matrix(9.9626,0,0,-9.9626,335.46504,49.058)"/>
<use data-text="1" xlink:href="#font_3_4" transform="matrix(6.9738,0,0,-6.9738,342.26704,50.552003)"/>
<use data-text="U" xlink:href="#font_5_2" transform="matrix(9.9626,0,0,-9.9626,61.19002,82.66499)"/>
<use data-text="k" xlink:href="#font_2_8" transform="matrix(6.9738,0,0,-6.9738,67.99202,84.159999)"/>
<use data-text="A" xlink:href="#font_7_1" transform="matrix(9.9626,0,0,-9.9626,105.38302,82.66499)"/>
<use data-text="&#x03b1;" xlink:href="#font_2_1" transform="matrix(6.9738,0,0,-6.9738,112.53202,84.159999)"/>
<use data-text="T" xlink:href="#font_1_8" transform="matrix(9.9626,0,0,-9.9626,197.09803,82.66499)"/>
<use data-text="&#x03b1;" xlink:href="#font_2_1" transform="matrix(6.9738,0,0,-6.9738,202.52402,84.159999)"/>
<use data-text="A" xlink:href="#font_7_1" transform="matrix(9.9626,0,0,-9.9626,290.23704,82.66499)"/>
<use data-text="&#x03b2;" xlink:href="#font_2_2" transform="matrix(6.9738,0,0,-6.9738,297.38603,84.159999)"/>
<use data-text="U" xlink:href="#font_5_2" transform="matrix(9.9626,0,0,-9.9626,335.24903,82.66499)"/>
<use data-text="k" xlink:href="#font_2_8" transform="matrix(6.9738,0,0,-6.9738,342.05104,84.159999)"/>
<use data-text="U" xlink:href="#font_5_2" transform="matrix(9.9626,0,0,-9.9626,61.19002,117.62899)"/>
<use data-text="k" xlink:href="#font_2_8" transform="matrix(6.9738,0,0,-6.9738,67.99202,119.12299)"/>
<use data-text="A" xlink:href="#font_7_1" transform="matrix(9.9626,0,0,-9.9626,106.03602,117.62899)"/>
<use data-text="&#x03b4;" xlink:href="#font_2_4" transform="matrix(6.9738,0,0,-6.9738,113.18502,119.12299)"/>
<use data-text="A" xlink:href="#font_7_1" transform="matrix(9.9626,0,0,-9.9626,197.16603,117.62899)"/>
<use data-text="&#x03f5;" xlink:href="#font_2_5" transform="matrix(6.9738,0,0,-6.9738,204.31504,119.12299)"/>
<use data-text="A" xlink:href="#font_7_1" transform="matrix(9.9626,0,0,-9.9626,290.368,117.62899)"/>
<use data-text="&#x03b3;" xlink:href="#font_2_3" transform="matrix(6.9738,0,0,-6.9738,297.517,119.12299)"/>
<use data-text="U" xlink:href="#font_5_2" transform="matrix(9.9626,0,0,-9.9626,335.24903,117.62899)"/>
<use data-text="k" xlink:href="#font_2_8" transform="matrix(6.9738,0,0,-6.9738,342.05104,119.12299)"/>
<use data-text="U" xlink:href="#font_5_2" transform="matrix(9.9626,0,0,-9.9626,61.40602,152.512)"/>
<use data-text="1" xlink:href="#font_3_4" transform="matrix(6.9738,0,0,-6.9738,68.20802,154.006)"/>
<use data-text="U" xlink:href="#font_5_2" transform="matrix(9.9626,0,0,-9.9626,106.16002,152.512)"/>
<use data-text="0" xlink:href="#font_3_3" transform="matrix(6.9738,0,0,-6.9738,112.96302,154.006)"/>
<use data-text="U" xlink:href="#font_5_2" transform="matrix(9.9626,0,0,-9.9626,150.76203,152.512)"/>
<use data-text="0" xlink:href="#font_3_3" transform="matrix(6.9738,0,0,-6.9738,157.56502,154.006)"/>
<use data-text="U" xlink:href="#font_5_2" transform="matrix(9.9626,0,0,-9.9626,196.79802,152.512)"/>
<use data-text="k" xlink:href="#font_2_8" transform="matrix(6.9738,0,0,-6.9738,203.60002,154.006)"/>
<use data-text="U" xlink:href="#font_5_2" transform="matrix(9.9626,0,0,-9.9626,244.83902,152.512)"/>
<use data-text="1" xlink:href="#font_3_4" transform="matrix(6.9738,0,0,-6.9738,251.64102,154.006)"/>
<use data-text="U" xlink:href="#font_5_2" transform="matrix(9.9626,0,0,-9.9626,290.86204,152.512)"/>
<use data-text="0" xlink:href="#font_3_3" transform="matrix(6.9738,0,0,-6.9738,297.66505,154.006)"/>
<use data-text="U" xlink:href="#font_5_2" transform="matrix(9.9626,0,0,-9.9626,335.46504,152.512)"/>
<use data-text="1" xlink:href="#font_3_4" transform="matrix(6.9738,0,0,-6.9738,342.26704,154.006)"/>
<use data-text="&#x2126;" xlink:href="#font_4_1" transform="matrix(9.9626,0,0,-9.9626,12.897026,186.039)"/>
<use data-text="&#x2126;" xlink:href="#font_4_1" transform="matrix(9.9626,0,0,-9.9626,388.47404,186.039)"/>
<use data-text="p" xlink:href="#font_8_1" transform="matrix(6.9738,0,0,-6.9738,395.67005,187.533)"/>
<path transform="matrix(1,0,0,-1,206.836,97.77799)" stroke-width=".39848" stroke-linecap="butt" stroke-miterlimit="10" stroke-linejoin="miter" fill="none" stroke="#000000" d="M-173.64897 86.09486H-105.62764"/>
<path transform="matrix(1,0,0,-1,101.4076,11.683136)" stroke-width=".39848" stroke-linecap="round" stroke-linejoin="round" fill="none" stroke="#000000" d="M-2.07213 2.39091C-1.69356 .95633-.84995 .27893 0 0-.84995-.27893-1.69356-.95633-2.07213-2.39091"/>
<use data-text="d" xlink:href="#font_3_7" transform="matrix(6.9738,0,0,-6.9738,51.365007,7.375)"/>
<use data-text="e" xlink:href="#font_3_8" transform="matrix(6.9738,0,0,-6.9738,55.765474,7.375)"/>
<use data-text="f" xlink:href="#font_3_9" transform="matrix(6.9738,0,0,-6.9738,59.308164,7.375)"/>
<use data-text="(" xlink:href="#font_3_1" transform="matrix(6.9738,0,0,-6.9738,61.77689,7.375)"/>
<use data-text="t" xlink:href="#font_8_2" transform="matrix(6.9738,0,0,-6.9738,64.88721,7.375)"/>
<use data-text="j" xlink:href="#font_9_2" transform="matrix(4.9813,0,0,-4.9813,67.81,8.371994)"/>
<use data-text="&#x2212;" xlink:href="#font_10_1" transform="matrix(4.9813,0,0,-4.9813,71.0329,8.371994)"/>
<use data-text="1" xlink:href="#font_11_2" transform="matrix(4.9813,0,0,-4.9813,76.42764,8.371994)"/>
<use data-text=")" xlink:href="#font_3_2" transform="matrix(6.9738,0,0,-6.9738,80.31801,7.375)"/>
<path transform="matrix(1,0,0,-1,206.836,97.77799)" stroke-width=".39848" stroke-linecap="butt" stroke-miterlimit="10" stroke-linejoin="miter" fill="none" stroke="#000000" d="M-85.03224 78.26443-60.94038 59.42032"/>
<path transform="matrix(.78764,.61607,.61607,-.78764,146.05252,38.48041)" stroke-width=".39848" stroke-linecap="round" stroke-linejoin="round" fill="none" stroke="#000000" d="M-2.07213 2.39091C-1.69356 .95633-.84995 .27893 0 0-.84995-.27893-1.69356-.95633-2.07213-2.39091"/>
<path transform="matrix(1,0,0,-1,206.836,97.77799)" d="M-86.6975 63.08792H-58.96131V74.351367H-86.6975Z" fill="#ffffff"/>
<use data-text="d" xlink:href="#font_3_7" transform="matrix(6.9738,0,0,-6.9738,122.284,30.802994)"/>
<use data-text="e" xlink:href="#font_3_8" transform="matrix(6.9738,0,0,-6.9738,126.68446,30.802994)"/>
<use data-text="f" xlink:href="#font_3_9" transform="matrix(6.9738,0,0,-6.9738,130.22716,30.802994)"/>
<use data-text="(" xlink:href="#font_3_1" transform="matrix(6.9738,0,0,-6.9738,132.69588,30.802994)"/>
<use data-text="t" xlink:href="#font_8_2" transform="matrix(6.9738,0,0,-6.9738,135.8062,30.802994)"/>
<use data-text="0" xlink:href="#font_11_1" transform="matrix(4.9813,0,0,-4.9813,138.729,31.798996)"/>
<use data-text=")" xlink:href="#font_3_2" transform="matrix(6.9738,0,0,-6.9738,142.617,30.802994)"/>
<path transform="matrix(1,0,0,-1,206.836,97.77799)" stroke-width=".39848" stroke-linecap="butt" stroke-miterlimit="10" stroke-linejoin="miter" fill="none" stroke="#000000" d="M-41.65302 86.09486H-12.67099"/>
<path transform="matrix(1,0,0,-1,194.36425,11.683136)" stroke-width=".39848" stroke-linecap="round" stroke-linejoin="round" fill="none" stroke="#000000" d="M-2.07213 2.39091C-1.69356 .95633-.84995 .27893 0 0-.84995-.27893-1.69356-.95633-2.07213-2.39091"/>
<use data-text="&#x2297;" xlink:href="#font_6_1" transform="matrix(6.9738,0,0,-6.9738,176.76,8.5099949)"/>
<path transform="matrix(1,0,0,-1,206.836,97.77799)" stroke-width=".39848" stroke-linecap="butt" stroke-miterlimit="10" stroke-linejoin="miter" fill="none" stroke="#000000" d="M3.90033 86.09486H35.98465"/>
<path transform="matrix(1,0,0,-1,243.0199,11.683136)" stroke-width=".39848" stroke-linecap="round" stroke-linejoin="round" fill="none" stroke="#000000" d="M-2.07213 2.39091C-1.69356 .95633-.84995 .27893 0 0-.84995-.27893-1.69356-.95633-2.07213-2.39091"/>
<path transform="matrix(1,0,0,-1,206.836,97.77799)" stroke-width=".39848" stroke-linecap="butt" stroke-miterlimit="10" stroke-linejoin="miter" fill="none" stroke="#000000" d="M50.89555 86.09486H167.72142"/>
<path transform="matrix(1,0,0,-1,374.75666,11.683136)" stroke-width=".39848" stroke-linecap="round" stroke-linejoin="round" fill="none" stroke="#000000" d="M-2.07213 2.39091C-1.69356 .95633-.84995 .27893 0 0-.84995-.27893-1.69356-.95633-2.07213-2.39091"/>
<path transform="matrix(1,0,0,-1,206.836,97.77799)" stroke-width=".39848" stroke-linecap="butt" stroke-miterlimit="10" stroke-linejoin="miter" fill="none" stroke="#000000" d="M-139.796 42.98242V26.1644"/>
<path transform="matrix(0,-1,-1,-0,67.03999,54.596334)" stroke-width=".39848" stroke-linecap="round" stroke-linejoin="round" fill="none" stroke="#000000" d="M-2.07213 2.39091C-1.69356 .95633-.84995 .27893 0 0-.84995-.27893-1.69356-.95633-2.07213-2.39091"/>
<path transform="matrix(0,1,1,0,67.03999,71.81284)" stroke-width=".39848" stroke-linecap="round" stroke-linejoin="round" fill="none" stroke="#000000" d="M-2.07213 2.39091C-1.69356 .95633-.84995 .27893 0 0-.84995-.27893-1.69356-.95633-2.07213-2.39091"/>
<use data-text="t" xlink:href="#font_2_10" transform="matrix(6.9738,0,0,-6.9738,61.688005,65.34999)"/>
<path transform="matrix(1,0,0,-1,206.836,97.77799)" stroke-width=".39848" stroke-linecap="butt" stroke-miterlimit="10" stroke-linejoin="miter" fill="none" stroke="#000000" d="M-105.56398 51.21132H-129.27288"/>
<path transform="matrix(1,0,0,-1,101.47127,46.566675)" stroke-width=".39848" stroke-linecap="round" stroke-linejoin="round" fill="none" stroke="#000000" d="M-2.07213 2.39091C-1.69356 .95633-.84995 .27893 0 0-.84995-.27893-1.69356-.95633-2.07213-2.39091"/>
<path transform="matrix(-1,-0,0,1,77.36389,46.566675)" stroke-width=".39848" stroke-linecap="round" stroke-linejoin="round" fill="none" stroke="#000000" d="M-2.07213 2.39091C-1.69356 .95633-.84995 .27893 0 0-.84995-.27893-1.69356-.95633-2.07213-2.39091"/>
<use data-text="t" xlink:href="#font_2_10" transform="matrix(6.9738,0,0,-6.9738,87.914,44.222993)"/>
<path transform="matrix(1,0,0,-1,206.836,97.77799)" stroke-width=".39848" stroke-linecap="butt" stroke-miterlimit="10" stroke-linejoin="miter" fill="none" stroke="#000000" d="M-39.95105 51.21132H-17.13628"/>
<path transform="matrix(-1,-0,0,1,166.78533,46.566675)" stroke-width=".39848" stroke-linecap="round" stroke-miterlimit="10" stroke-linejoin="miter" fill="none" stroke="#000000" d="M0 1.63379V-1.63379"/>
<path transform="matrix(1,0,0,-1,189.89897,46.566675)" stroke-width=".39848" stroke-linecap="round" stroke-linejoin="round" fill="none" stroke="#000000" d="M-2.07213 2.39091C-1.69356 .95633-.84995 .27893 0 0-.84995-.27893-1.69356-.95633-2.07213-2.39091"/>
<path transform="matrix(1,0,0,-1,206.836,97.77799)" stroke-width=".39848" stroke-linecap="butt" stroke-miterlimit="10" stroke-linejoin="miter" fill="none" stroke="#000000" d="M-40.24991 43.80763-14.54903 25.12999"/>
<path transform="matrix(.80893,.58786,.58786,-.80893,192.44812,72.76509)" stroke-width=".39848" stroke-linecap="round" stroke-linejoin="round" fill="none" stroke="#000000" d="M-2.07213 2.39091C-1.69356 .95633-.84995 .27893 0 0-.84995-.27893-1.69356-.95633-2.07213-2.39091"/>
<path transform="matrix(1,0,0,-1,206.836,97.77799)" d="M-41.91676 28.71999H-12.55986V39.98343H-41.91676Z" fill="#ffffff"/>
<use data-text="d" xlink:href="#font_3_7" transform="matrix(6.9738,0,0,-6.9738,167.064,65.16999)"/>
<use data-text="e" xlink:href="#font_3_8" transform="matrix(6.9738,0,0,-6.9738,171.46446,65.16999)"/>
<use data-text="f" xlink:href="#font_3_9" transform="matrix(6.9738,0,0,-6.9738,175.00716,65.16999)"/>
<use data-text="(" xlink:href="#font_3_1" transform="matrix(6.9738,0,0,-6.9738,177.47588,65.16999)"/>
<use data-text="t" xlink:href="#font_8_2" transform="matrix(6.9738,0,0,-6.9738,180.5862,65.16999)"/>
<use data-text="T" xlink:href="#font_9_1" transform="matrix(4.9813,0,0,-4.9813,183.509,66.17199)"/>
<use data-text=")" xlink:href="#font_3_2" transform="matrix(6.9738,0,0,-6.9738,189.018,65.16999)"/>
<path transform="matrix(1,0,0,-1,206.836,97.77799)" stroke-width=".39848" stroke-linecap="butt" stroke-miterlimit="10" stroke-linejoin="miter" fill="none" stroke="#000000" d="M-15.00601 59.37386-41.3349 79.23225"/>
<path transform="matrix(-.79836,-.60214,-.60214,.79836,165.34204,18.425789)" stroke-width=".39848" stroke-linecap="round" stroke-linejoin="round" fill="none" stroke="#000000" d="M-2.07213 2.39091C-1.69356 .95633-.84995 .27893 0 0-.84995-.27893-1.69356-.95633-2.07213-2.39091"/>
<path transform="matrix(1,0,0,-1,206.836,97.77799)" stroke-width=".39848" stroke-linecap="butt" stroke-miterlimit="10" stroke-linejoin="miter" fill="none" stroke="#000000" d="M-4.18608 43.38089V26.1644"/>
<path transform="matrix(0,1,1,0,202.64992,71.81284)" stroke-width=".39848" stroke-linecap="round" stroke-linejoin="round" fill="none" stroke="#000000" d="M-2.07213 2.39091C-1.69356 .95633-.84995 .27893 0 0-.84995-.27893-1.69356-.95633-2.07213-2.39091"/>
<path transform="matrix(1,0,0,-1,206.836,97.77799)" stroke-width=".39848" stroke-linecap="butt" stroke-miterlimit="10" stroke-linejoin="miter" fill="none" stroke="#000000" d="M36.64375 37.48474 10.32338 18.9909"/>
<path transform="matrix(-.81819,.57489,.57489,.81819,216.99637,78.901638)" stroke-width=".39848" stroke-linecap="round" stroke-linejoin="round" fill="none" stroke="#000000" d="M-2.07213 2.39091C-1.69356 .95633-.84995 .27893 0 0-.84995-.27893-1.69356-.95633-2.07213-2.39091"/>
<path transform="matrix(1,0,0,-1,206.836,97.77799)" stroke-width=".39848" stroke-linecap="butt" stroke-miterlimit="10" stroke-linejoin="miter" fill="none" stroke="#000000" d="M100.18665 51.21132H123.74379"/>
<path transform="matrix(-1,-0,0,1,306.8234,46.566675)" stroke-width=".39848" stroke-linecap="round" stroke-linejoin="round" fill="none" stroke="#000000" d="M-2.07213 2.39091C-1.69356 .95633-.84995 .27893 0 0-.84995-.27893-1.69356-.95633-2.07213-2.39091"/>
<path transform="matrix(1,0,0,-1,330.77903,46.566675)" stroke-width=".39848" stroke-linecap="round" stroke-linejoin="round" fill="none" stroke="#000000" d="M-2.07213 2.39091C-1.69356 .95633-.84995 .27893 0 0-.84995-.27893-1.69356-.95633-2.07213-2.39091"/>
<use data-text="t" xlink:href="#font_2_10" transform="matrix(6.9738,0,0,-6.9738,317.29499,44.222993)"/>
<path transform="matrix(1,0,0,-1,206.836,97.77799)" stroke-width=".39848" stroke-linecap="butt" stroke-miterlimit="10" stroke-linejoin="miter" fill="none" stroke="#000000" d="M-106.18198 25.9693-129.35276 43.37376"/>
<path transform="matrix(.79955,.60057,.60057,-.79955,100.73366,71.868518)" stroke-width=".39848" stroke-linecap="round" stroke-miterlimit="10" stroke-linejoin="miter" fill="none" stroke="#000000" d="M0 1.63379V-1.63379"/>
<path transform="matrix(-.79955,-.60056,-.60056,.79955,77.32396,54.28459)" stroke-width=".39848" stroke-linecap="round" stroke-linejoin="round" fill="none" stroke="#000000" d="M-2.07213 2.39091C-1.69356 .95633-.84995 .27893 0 0-.84995-.27893-1.69356-.95633-2.07213-2.39091"/>
<path transform="matrix(1,0,0,-1,206.836,97.77799)" d="M-123.48679 31.05536H-112.12761V38.34754H-123.48679Z" fill="#ffffff"/>
<use data-text="m" xlink:href="#font_2_9" transform="matrix(6.9738,0,0,-6.9738,85.494998,64.577999)"/>
<path transform="matrix(1,0,0,-1,206.836,97.77799)" stroke-width=".39848" stroke-linecap="butt" stroke-miterlimit="10" stroke-linejoin="miter" fill="none" stroke="#000000" d="M-95.04085 26.14522V42.98242"/>
<path transform="matrix(0,1,1,0,111.79515,71.73238)" stroke-width=".39848" stroke-linecap="round" stroke-miterlimit="10" stroke-linejoin="miter" fill="none" stroke="#000000" d="M0 1.63379V-1.63379"/>
<path transform="matrix(0,-1,-1,-0,111.79515,54.596334)" stroke-width=".39848" stroke-linecap="round" stroke-linejoin="round" fill="none" stroke="#000000" d="M-2.07213 2.39091C-1.69356 .95633-.84995 .27893 0 0-.84995-.27893-1.69356-.95633-2.07213-2.39091"/>
<use data-text="m" xlink:href="#font_2_9" transform="matrix(6.9738,0,0,-6.9738,114.14,64.66599)"/>
<path transform="matrix(1,0,0,-1,206.836,97.77799)" stroke-width=".39848" stroke-linecap="butt" stroke-miterlimit="10" stroke-linejoin="miter" fill="none" stroke="#000000" d="M-106.2419 17.60338H-129.05667"/>
<path transform="matrix(1,0,0,-1,100.693729,80.174617)" stroke-width=".39848" stroke-linecap="round" stroke-miterlimit="10" stroke-linejoin="miter" fill="none" stroke="#000000" d="M0 1.63379V-1.63379"/>
<path transform="matrix(-1,-0,0,1,77.58009,80.174617)" stroke-width=".39848" stroke-linecap="round" stroke-linejoin="round" fill="none" stroke="#000000" d="M-2.07213 2.39091C-1.69356 .95633-.84995 .27893 0 0-.84995-.27893-1.69356-.95633-2.07213-2.39091"/>
<use data-text="m" xlink:href="#font_2_9" transform="matrix(6.9738,0,0,-6.9738,85.603,85.520999)"/>
<path transform="matrix(1,0,0,-1,206.836,97.77799)" stroke-width=".39848" stroke-linecap="butt" stroke-miterlimit="10" stroke-linejoin="miter" fill="none" stroke="#000000" d="M5.85452 24.65536 32.17467 43.1518"/>
<path transform="matrix(.81816,-.57495,-.57495,-.81816,239.17366,54.511655)" stroke-width=".39848" stroke-linecap="round" stroke-linejoin="round" fill="none" stroke="#000000" d="M-2.07213 2.39091C-1.69356 .95633-.84995 .27893 0 0-.84995-.27893-1.69356-.95633-2.07213-2.39091"/>
<use data-text="&#x2022;" xlink:href="#font_1_3" transform="matrix(8.151001,-5.7279965,-5.7279965,-8.151001,225.407,67.22998)" fill="#ffffff"/>
<use data-text="&#x25e6;" xlink:href="#font_1_2" transform="matrix(8.151001,-5.7279965,-5.7279965,-8.151001,225.407,67.22998)"/>
<path transform="matrix(1,0,0,-1,206.836,97.77799)" stroke-width=".39848" stroke-linecap="butt" stroke-miterlimit="10" stroke-linejoin="miter" fill="none" stroke="#000000" d="M-14.52556 17.60338H-83.74019"/>
<path transform="matrix(1,0,0,-1,192.41007,80.174617)" stroke-width=".39848" stroke-linecap="round" stroke-miterlimit="10" stroke-linejoin="miter" fill="none" stroke="#000000" d="M0 1.63379V-1.63379"/>
<path transform="matrix(-1,-0,0,1,122.896579,80.174617)" stroke-width=".39848" stroke-linecap="round" stroke-linejoin="round" fill="none" stroke="#000000" d="M-2.07213 2.39091C-1.69356 .95633-.84995 .27893 0 0-.84995-.27893-1.69356-.95633-2.07213-2.39091"/>
<use data-text="R" xlink:href="#font_3_6" transform="matrix(6.9738,0,0,-6.9738,150.79,76.47499)"/>
<use data-text="e" xlink:href="#font_3_8" transform="matrix(6.9738,0,0,-6.9738,156.57128,76.47499)"/>
<use data-text="p" xlink:href="#font_3_10" transform="matrix(6.9738,0,0,-6.9738,160.11397,76.47499)"/>
<path transform="matrix(1,0,0,-1,206.836,97.77799)" stroke-width=".39848" stroke-linecap="butt" stroke-miterlimit="10" stroke-linejoin="miter" fill="none" stroke="#000000" d="M6.15337 17.60338H78.51459"/>
<path transform="matrix(-1,-0,0,1,212.88976,80.174617)" stroke-width=".39848" stroke-linecap="round" stroke-miterlimit="10" stroke-linejoin="miter" fill="none" stroke="#000000" d="M0 1.63379V-1.63379"/>
<path transform="matrix(1,0,0,-1,285.54985,80.174617)" stroke-width=".39848" stroke-linecap="round" stroke-linejoin="round" fill="none" stroke="#000000" d="M-2.07213 2.39091C-1.69356 .95633-.84995 .27893 0 0-.84995-.27893-1.69356-.95633-2.07213-2.39091"/>
<use data-text="R" xlink:href="#font_3_6" transform="matrix(6.9738,0,0,-6.9738,242.356,76.47499)"/>
<use data-text="e" xlink:href="#font_3_8" transform="matrix(6.9738,0,0,-6.9738,248.13729,76.47499)"/>
<use data-text="p" xlink:href="#font_3_10" transform="matrix(6.9738,0,0,-6.9738,251.67998,76.47499)"/>
<path transform="matrix(1,0,0,-1,206.836,97.77799)" stroke-width=".39848" stroke-linecap="butt" stroke-miterlimit="10" stroke-linejoin="miter" fill="none" stroke="#000000" d="M-14.5056 13.63185-84.41946-13.27678"/>
<path transform="matrix(.93323,-.35919,-.35919,-.93323,192.42336,84.110378)" stroke-width=".39848" stroke-linecap="round" stroke-miterlimit="10" stroke-linejoin="miter" fill="none" stroke="#000000" d="M0 1.63379V-1.63379"/>
<path transform="matrix(-.93323,.35919,.35919,.93323,122.2306,111.12632)" stroke-width=".39848" stroke-linecap="round" stroke-linejoin="round" fill="none" stroke="#000000" d="M-2.07213 2.39091C-1.69356 .95633-.84995 .27893 0 0-.84995-.27893-1.69356-.95633-2.07213-2.39091"/>
<path transform="matrix(1,0,0,-1,206.836,97.77799)" d="M-58.51703-5.04588H-40.500989V5.36519H-58.51703Z" fill="#ffffff"/>
<use data-text="R" xlink:href="#font_3_6" transform="matrix(6.9738,0,0,-6.9738,150.46399,99.32299)"/>
<use data-text="e" xlink:href="#font_3_8" transform="matrix(6.9738,0,0,-6.9738,156.24527,99.32299)"/>
<use data-text="p" xlink:href="#font_3_10" transform="matrix(6.9738,0,0,-6.9738,159.78797,99.32299)"/>
<path transform="matrix(1,0,0,-1,206.836,97.77799)" stroke-width=".39848" stroke-linecap="butt" stroke-miterlimit="10" stroke-linejoin="miter" fill="none" stroke="#000000" d="M-4.18608 9.47409V-8.71913"/>
<path transform="matrix(0,-1,-1,-0,202.64992,88.20427)" stroke-width=".39848" stroke-linecap="round" stroke-miterlimit="10" stroke-linejoin="miter" fill="none" stroke="#000000" d="M0 1.63379V-1.63379"/>
<path transform="matrix(0,1,1,0,202.64992,106.696369)" stroke-width=".39848" stroke-linecap="round" stroke-linejoin="round" fill="none" stroke="#000000" d="M-2.07213 2.39091C-1.69356 .95633-.84995 .27893 0 0-.84995-.27893-1.69356-.95633-2.07213-2.39091"/>
<path transform="matrix(1,0,0,-1,206.836,97.77799)" d="M-13.1941-4.87785H4.8219406V5.53322H-13.1941Z" fill="#ffffff"/>
<use data-text="R" xlink:href="#font_3_6" transform="matrix(6.9738,0,0,-6.9738,195.787,99.15499)"/>
<use data-text="e" xlink:href="#font_3_8" transform="matrix(6.9738,0,0,-6.9738,201.56829,99.15499)"/>
<use data-text="p" xlink:href="#font_3_10" transform="matrix(6.9738,0,0,-6.9738,205.11098,99.15499)"/>
<path transform="matrix(1,0,0,-1,206.836,97.77799)" stroke-width=".39848" stroke-linecap="butt" stroke-miterlimit="10" stroke-linejoin="miter" fill="none" stroke="#000000" d="M6.13454 13.76018 78.67075-13.26935"/>
<path transform="matrix(-.93701,-.34915,-.34915,.93701,212.8772,83.98304)" stroke-width=".39848" stroke-linecap="round" stroke-miterlimit="10" stroke-linejoin="miter" fill="none" stroke="#000000" d="M0 1.63379V-1.63379"/>
<path transform="matrix(.93701,.34915,.34915,-.93701,285.6934,111.11689)" stroke-width=".39848" stroke-linecap="round" stroke-linejoin="round" fill="none" stroke="#000000" d="M-2.07213 2.39091C-1.69356 .95633-.84995 .27893 0 0-.84995-.27893-1.69356-.95633-2.07213-2.39091"/>
<path transform="matrix(1,0,0,-1,206.836,97.77799)" d="M33.44128-4.9775H51.45732V5.43357H33.44128Z" fill="#ffffff"/>
<use data-text="R" xlink:href="#font_3_6" transform="matrix(6.9738,0,0,-6.9738,242.42099,99.25499)"/>
<use data-text="e" xlink:href="#font_3_8" transform="matrix(6.9738,0,0,-6.9738,248.20227,99.25499)"/>
<use data-text="p" xlink:href="#font_3_10" transform="matrix(6.9738,0,0,-6.9738,251.74497,99.25499)"/>
<path transform="matrix(1,0,0,-1,206.836,97.77799)" stroke-width=".39848" stroke-linecap="butt" stroke-miterlimit="10" stroke-linejoin="miter" fill="none" stroke="#000000" d="M89.66351 26.14522V42.98242"/>
<path transform="matrix(0,1,1,0,296.4995,71.73238)" stroke-width=".39848" stroke-linecap="round" stroke-miterlimit="10" stroke-linejoin="miter" fill="none" stroke="#000000" d="M0 1.63379V-1.63379"/>
<path transform="matrix(0,-1,-1,-0,296.4995,54.596334)" stroke-width=".39848" stroke-linecap="round" stroke-linejoin="round" fill="none" stroke="#000000" d="M-2.07213 2.39091C-1.69356 .95633-.84995 .27893 0 0-.84995-.27893-1.69356-.95633-2.07213-2.39091"/>
<use data-text="m" xlink:href="#font_2_9" transform="matrix(6.9738,0,0,-6.9738,287.085,64.66599)"/>
<path transform="matrix(1,0,0,-1,206.836,97.77799)" stroke-width=".39848" stroke-linecap="butt" stroke-miterlimit="10" stroke-linejoin="miter" fill="none" stroke="#000000" d="M100.65259 25.88184 123.82408 43.3471"/>
<path transform="matrix(-.79855,.6019,.6019,.79855,307.40907,71.95612)" stroke-width=".39848" stroke-linecap="round" stroke-miterlimit="10" stroke-linejoin="miter" fill="none" stroke="#000000" d="M0 1.63379V-1.63379"/>
<path transform="matrix(.79855,-.6019,-.6019,-.79855,330.81916,54.310964)" stroke-width=".39848" stroke-linecap="round" stroke-linejoin="round" fill="none" stroke="#000000" d="M-2.07213 2.39091C-1.69356 .95633-.84995 .27893 0 0-.84995-.27893-1.69356-.95633-2.07213-2.39091"/>
<path transform="matrix(1,0,0,-1,206.836,97.77799)" d="M106.59851 30.99837H117.95769V38.29055H106.59851Z" fill="#ffffff"/>
<use data-text="m" xlink:href="#font_2_9" transform="matrix(6.9738,0,0,-6.9738,315.578,64.634998)"/>
<path transform="matrix(1,0,0,-1,206.836,97.77799)" stroke-width=".39848" stroke-linecap="butt" stroke-miterlimit="10" stroke-linejoin="miter" fill="none" stroke="#000000" d="M100.71281 17.60338H123.52759"/>
<path transform="matrix(-1,-0,0,1,307.4492,80.174617)" stroke-width=".39848" stroke-linecap="round" stroke-miterlimit="10" stroke-linejoin="miter" fill="none" stroke="#000000" d="M0 1.63379V-1.63379"/>
<path transform="matrix(1,0,0,-1,330.5628,80.174617)" stroke-width=".39848" stroke-linecap="round" stroke-linejoin="round" fill="none" stroke="#000000" d="M-2.07213 2.39091C-1.69356 .95633-.84995 .27893 0 0-.84995-.27893-1.69356-.95633-2.07213-2.39091"/>
<use data-text="m" xlink:href="#font_2_9" transform="matrix(6.9738,0,0,-6.9738,315.47,85.520999)"/>
<path transform="matrix(1,0,0,-1,206.836,97.77799)" stroke-width=".39848" stroke-linecap="butt" stroke-miterlimit="10" stroke-linejoin="miter" fill="none" stroke="#000000" d="M134.26692 26.1644V42.98242"/>
<path transform="matrix(0,1,1,0,341.1029,71.81284)" stroke-width=".39848" stroke-linecap="round" stroke-linejoin="round" fill="none" stroke="#000000" d="M-2.07213 2.39091C-1.69356 .95633-.84995 .27893 0 0-.84995-.27893-1.69356-.95633-2.07213-2.39091"/>
<path transform="matrix(0,-1,-1,-0,341.1029,54.596334)" stroke-width=".39848" stroke-linecap="round" stroke-linejoin="round" fill="none" stroke="#000000" d="M-2.07213 2.39091C-1.69356 .95633-.84995 .27893 0 0-.84995-.27893-1.69356-.95633-2.07213-2.39091"/>
<use data-text="t" xlink:href="#font_2_10" transform="matrix(6.9738,0,0,-6.9738,343.445,65.34999)"/>
<path transform="matrix(1,0,0,-1,206.836,97.77799)" stroke-width=".39848" stroke-linecap="butt" stroke-miterlimit="10" stroke-linejoin="miter" fill="none" stroke="#000000" d="M134.26692 9.37448V-8.79958"/>
<path transform="matrix(0,-1,-1,-0,341.1029,88.20427)" stroke-width=".39848" stroke-linecap="round" stroke-linejoin="round" fill="none" stroke="#000000" d="M-2.07213 2.39091C-1.69356 .95633-.84995 .27893 0 0-.84995-.27893-1.69356-.95633-2.07213-2.39091"/>
<path transform="matrix(0,1,1,0,341.1029,106.776828)" stroke-width=".39848" stroke-linecap="round" stroke-linejoin="round" fill="none" stroke="#000000" d="M-2.07213 2.39091C-1.69356 .95633-.84995 .27893 0 0-.84995-.27893-1.69356-.95633-2.07213-2.39091"/>
<path transform="matrix(1,0,0,-1,206.836,97.77799)" d="M130.61737-4.00204H137.91648V4.57697H130.61737Z" fill="#ffffff"/>
<use data-text="t" xlink:href="#font_2_10" transform="matrix(6.9738,0,0,-6.9738,339.596,99.634998)"/>
<path transform="matrix(1,0,0,-1,206.836,97.77799)" stroke-width=".39848" stroke-linecap="butt" stroke-miterlimit="10" stroke-linejoin="miter" fill="none" stroke="#000000" d="M-139.796-8.79958V9.37448"/>
<path transform="matrix(0,1,1,0,67.03999,106.776828)" stroke-width=".39848" stroke-linecap="round" stroke-linejoin="round" fill="none" stroke="#000000" d="M-2.07213 2.39091C-1.69356 .95633-.84995 .27893 0 0-.84995-.27893-1.69356-.95633-2.07213-2.39091"/>
<path transform="matrix(0,-1,-1,-0,67.03999,88.20427)" stroke-width=".39848" stroke-linecap="round" stroke-linejoin="round" fill="none" stroke="#000000" d="M-2.07213 2.39091C-1.69356 .95633-.84995 .27893 0 0-.84995-.27893-1.69356-.95633-2.07213-2.39091"/>
<use data-text="t" xlink:href="#font_2_10" transform="matrix(6.9738,0,0,-6.9738,61.688005,99.634998)"/>
<path transform="matrix(1,0,0,-1,206.836,97.77799)" stroke-width=".39848" stroke-linecap="butt" stroke-miterlimit="10" stroke-linejoin="miter" fill="none" stroke="#000000" d="M-139.796-25.5895V-43.68312"/>
<path transform="matrix(0,-1,-1,-0,67.03999,123.16825)" stroke-width=".39848" stroke-linecap="round" stroke-linejoin="round" fill="none" stroke="#000000" d="M-2.07213 2.39091C-1.69356 .95633-.84995 .27893 0 0-.84995-.27893-1.69356-.95633-2.07213-2.39091"/>
<path transform="matrix(0,1,1,0,67.03999,141.66034)" stroke-width=".39848" stroke-linecap="round" stroke-linejoin="round" fill="none" stroke="#000000" d="M-2.07213 2.39091C-1.69356 .95633-.84995 .27893 0 0-.84995-.27893-1.69356-.95633-2.07213-2.39091"/>
<use data-text="t" xlink:href="#font_2_10" transform="matrix(6.9738,0,0,-6.9738,61.688005,134.55799)"/>
<path transform="matrix(1,0,0,-1,206.836,97.77799)" stroke-width=".39848" stroke-linecap="butt" stroke-miterlimit="10" stroke-linejoin="miter" fill="none" stroke="#000000" d="M-95.04085-8.71913V9.37448"/>
<path transform="matrix(0,1,1,0,111.79515,106.696369)" stroke-width=".39848" stroke-linecap="round" stroke-linejoin="round" fill="none" stroke="#000000" d="M-2.07213 2.39091C-1.69356 .95633-.84995 .27893 0 0-.84995-.27893-1.69356-.95633-2.07213-2.39091"/>
<path transform="matrix(0,-1,-1,-0,111.79515,88.20427)" stroke-width=".39848" stroke-linecap="round" stroke-linejoin="round" fill="none" stroke="#000000" d="M-2.07213 2.39091C-1.69356 .95633-.84995 .27893 0 0-.84995-.27893-1.69356-.95633-2.07213-2.39091"/>
<use data-text="&#xfffd;" xlink:href="#font_12_1" transform="matrix(0,-9.9626,-9.9626,-0,114.287,98.55699)"/>
<path transform="matrix(1,0,0,-1,206.836,97.77799)" stroke-width=".39848" stroke-linecap="butt" stroke-miterlimit="10" stroke-linejoin="miter" fill="none" stroke="#000000" d="M-105.58922-17.3606H-129.05667"/>
<path transform="matrix(1,0,0,-1,101.34639,115.138599)" stroke-width=".39848" stroke-linecap="round" stroke-miterlimit="10" stroke-linejoin="miter" fill="none" stroke="#000000" d="M0 1.63379V-1.63379"/>
<path transform="matrix(-1,-0,0,1,77.58009,115.138599)" stroke-width=".39848" stroke-linecap="round" stroke-linejoin="round" fill="none" stroke="#000000" d="M-2.07213 2.39091C-1.69356 .95633-.84995 .27893 0 0-.84995-.27893-1.69356-.95633-2.07213-2.39091"/>
<use data-text="m" xlink:href="#font_2_9" transform="matrix(6.9738,0,0,-6.9738,85.93,112.79399)"/>
<path transform="matrix(1,0,0,-1,206.836,97.77799)" stroke-width=".39848" stroke-linecap="butt" stroke-miterlimit="10" stroke-linejoin="miter" fill="none" stroke="#000000" d="M-84.39285-17.3606H-14.55733"/>
<path transform="matrix(-1,-0,0,1,122.24391,115.138599)" stroke-width=".39848" stroke-linecap="round" stroke-linejoin="round" fill="none" stroke="#000000" d="M-2.07213 2.39091C-1.69356 .95633-.84995 .27893 0 0-.84995-.27893-1.69356-.95633-2.07213-2.39091"/>
<path transform="matrix(1,0,0,-1,192.4779,115.138599)" stroke-width=".39848" stroke-linecap="round" stroke-linejoin="round" fill="none" stroke="#000000" d="M-2.07213 2.39091C-1.69356 .95633-.84995 .27893 0 0-.84995-.27893-1.69356-.95633-2.07213-2.39091"/>
<use data-text="&#xfffd;" xlink:href="#font_12_1" transform="matrix(9.9626,0,0,-9.9626,156.254,117.62899)"/>
<path transform="matrix(1,0,0,-1,206.836,97.77799)" stroke-width=".39848" stroke-linecap="butt" stroke-miterlimit="10" stroke-linejoin="miter" fill="none" stroke="#000000" d="M-105.31895-25.37474-129.35709-44.11246"/>
<path transform="matrix(.78867,-.61476,-.61476,-.78867,101.59561,123.09149)" stroke-width=".39848" stroke-linecap="round" stroke-miterlimit="10" stroke-linejoin="miter" fill="none" stroke="#000000" d="M0 1.63379V-1.63379"/>
<path transform="matrix(-.78867,.61476,.61476,.78867,77.32179,142.01294)" stroke-width=".39848" stroke-linecap="round" stroke-linejoin="round" fill="none" stroke="#000000" d="M-2.07213 2.39091C-1.69356 .95633-.84995 .27893 0 0-.84995-.27893-1.69356-.95633-2.07213-2.39091"/>
<path transform="matrix(1,0,0,-1,206.836,97.77799)" d="M-123.05688-38.4203H-111.69769V-31.12812H-123.05688Z" fill="#ffffff"/>
<use data-text="m" xlink:href="#font_2_9" transform="matrix(6.9738,0,0,-6.9738,85.924999,134.053)"/>
<path transform="matrix(1,0,0,-1,206.836,97.77799)" stroke-width=".39848" stroke-linecap="butt" stroke-miterlimit="10" stroke-linejoin="miter" fill="none" stroke="#000000" d="M-95.04085-25.48988V-43.68312"/>
<path transform="matrix(0,-1,-1,-0,111.79515,123.16825)" stroke-width=".39848" stroke-linecap="round" stroke-miterlimit="10" stroke-linejoin="miter" fill="none" stroke="#000000" d="M0 1.63379V-1.63379"/>
<path transform="matrix(0,1,1,0,111.79515,141.66034)" stroke-width=".39848" stroke-linecap="round" stroke-linejoin="round" fill="none" stroke="#000000" d="M-2.07213 2.39091C-1.69356 .95633-.84995 .27893 0 0-.84995-.27893-1.69356-.95633-2.07213-2.39091"/>
<use data-text="m" xlink:href="#font_2_9" transform="matrix(6.9738,0,0,-6.9738,114.14,133.915)"/>
<path transform="matrix(1,0,0,-1,206.836,97.77799)" stroke-width=".39848" stroke-linecap="butt" stroke-miterlimit="10" stroke-linejoin="miter" fill="none" stroke="#000000" d="M6.18515-17.3606H78.64563"/>
<path transform="matrix(-1,-0,0,1,212.8219,115.138599)" stroke-width=".39848" stroke-linecap="round" stroke-linejoin="round" fill="none" stroke="#000000" d="M-2.07213 2.39091C-1.69356 .95633-.84995 .27893 0 0-.84995-.27893-1.69356-.95633-2.07213-2.39091"/>
<path transform="matrix(1,0,0,-1,285.68086,115.138599)" stroke-width=".39848" stroke-linecap="round" stroke-linejoin="round" fill="none" stroke="#000000" d="M-2.07213 2.39091C-1.69356 .95633-.84995 .27893 0 0-.84995-.27893-1.69356-.95633-2.07213-2.39091"/>
<use data-text="&#xfffd;" xlink:href="#font_12_1" transform="matrix(9.9626,0,0,-9.9626,248.144,117.62899)"/>
<path transform="matrix(1,0,0,-1,206.836,97.77799)" stroke-width=".39848" stroke-linecap="butt" stroke-miterlimit="10" stroke-linejoin="miter" fill="none" stroke="#000000" d="M-14.39743-25.06183-39.99547-44.37177"/>
<path transform="matrix(.79832,-.6022,-.6022,-.79832,192.51808,122.77982)" stroke-width=".39848" stroke-linecap="round" stroke-miterlimit="10" stroke-linejoin="miter" fill="none" stroke="#000000" d="M0 1.63379V-1.63379"/>
<path transform="matrix(-.79832,.6022,.6022,.79832,166.68148,142.26973)" stroke-width=".39848" stroke-linecap="round" stroke-linejoin="round" fill="none" stroke="#000000" d="M-2.07213 2.39091C-1.69356 .95633-.84995 .27893 0 0-.84995-.27893-1.69356-.95633-2.07213-2.39091"/>
<use data-text="m" xlink:href="#font_2_9" transform="matrix(6.9738,0,0,-6.9738,170.186,130.18)"/>
<path transform="matrix(1,0,0,-1,206.836,97.77799)" stroke-width=".39848" stroke-linecap="butt" stroke-miterlimit="10" stroke-linejoin="miter" fill="none" stroke="#000000" d="M-4.18608-25.48988V-43.68312"/>
<path transform="matrix(0,-1,-1,-0,202.64992,123.16825)" stroke-width=".39848" stroke-linecap="round" stroke-miterlimit="10" stroke-linejoin="miter" fill="none" stroke="#000000" d="M0 1.63379V-1.63379"/>
<path transform="matrix(0,1,1,0,202.64992,141.66034)" stroke-width=".39848" stroke-linecap="round" stroke-linejoin="round" fill="none" stroke="#000000" d="M-2.07213 2.39091C-1.69356 .95633-.84995 .27893 0 0-.84995-.27893-1.69356-.95633-2.07213-2.39091"/>
<path transform="matrix(1,0,0,-1,206.836,97.77799)" d="M-9.86568-38.2824H1.4935007V-30.99022H-9.86568Z" fill="#ffffff"/>
<use data-text="m" xlink:href="#font_2_9" transform="matrix(6.9738,0,0,-6.9738,199.115,133.915)"/>
<path transform="matrix(1,0,0,-1,206.836,97.77799)" stroke-width=".39848" stroke-linecap="butt" stroke-miterlimit="10" stroke-linejoin="miter" fill="none" stroke="#000000" d="M6.02809-24.80751 33.1928-44.62576"/>
<path transform="matrix(-.80785,-.58936,-.58936,.80785,212.78363,122.526798)" stroke-width=".39848" stroke-linecap="round" stroke-miterlimit="10" stroke-linejoin="miter" fill="none" stroke="#000000" d="M0 1.63379V-1.63379"/>
<path transform="matrix(.80783,.58936,.58936,-.80783,240.18975,142.52118)" stroke-width=".39848" stroke-linecap="round" stroke-linejoin="round" fill="none" stroke="#000000" d="M-2.07213 2.39091C-1.69356 .95633-.84995 .27893 0 0-.84995-.27893-1.69356-.95633-2.07213-2.39091"/>
<use data-text="m" xlink:href="#font_2_9" transform="matrix(6.9738,0,0,-6.9738,228.83,130.17899)"/>
<path transform="matrix(1,0,0,-1,206.836,97.77799)" stroke-width=".39848" stroke-linecap="butt" stroke-miterlimit="10" stroke-linejoin="miter" fill="none" stroke="#000000" d="M89.66351-8.71913V8.01843"/>
<path transform="matrix(0,1,1,0,296.4995,106.696369)" stroke-width=".39848" stroke-linecap="round" stroke-linejoin="round" fill="none" stroke="#000000" d="M-2.07213 2.39091C-1.69356 .95633-.84995 .27893 0 0-.84995-.27893-1.69356-.95633-2.07213-2.39091"/>
<path transform="matrix(0,-1,-1,-0,296.4995,89.56032)" stroke-width=".39848" stroke-linecap="round" stroke-linejoin="round" fill="none" stroke="#000000" d="M-2.07213 2.39091C-1.69356 .95633-.84995 .27893 0 0-.84995-.27893-1.69356-.95633-2.07213-2.39091"/>
<use data-text="&#xfffd;" xlink:href="#font_12_1" transform="matrix(0,-9.9626,-9.9626,-0,298.989,99.234989)"/>
<path transform="matrix(1,0,0,-1,206.836,97.77799)" stroke-width=".39848" stroke-linecap="butt" stroke-miterlimit="10" stroke-linejoin="miter" fill="none" stroke="#000000" d="M100.58177-17.3606H123.52759"/>
<path transform="matrix(-1,-0,0,1,307.31816,115.138599)" stroke-width=".39848" stroke-linecap="round" stroke-miterlimit="10" stroke-linejoin="miter" fill="none" stroke="#000000" d="M0 1.63379V-1.63379"/>
<path transform="matrix(1,0,0,-1,330.5628,115.138599)" stroke-width=".39848" stroke-linecap="round" stroke-linejoin="round" fill="none" stroke="#000000" d="M-2.07213 2.39091C-1.69356 .95633-.84995 .27893 0 0-.84995-.27893-1.69356-.95633-2.07213-2.39091"/>
<use data-text="m" xlink:href="#font_2_9" transform="matrix(6.9738,0,0,-6.9738,315.404,112.79399)"/>
<path transform="matrix(1,0,0,-1,206.836,97.77799)" stroke-width=".39848" stroke-linecap="butt" stroke-miterlimit="10" stroke-linejoin="miter" fill="none" stroke="#000000" d="M89.66351-26.84593V-43.68312"/>
<path transform="matrix(0,-1,-1,-0,296.4995,124.52429)" stroke-width=".39848" stroke-linecap="round" stroke-miterlimit="10" stroke-linejoin="miter" fill="none" stroke="#000000" d="M0 1.63379V-1.63379"/>
<path transform="matrix(0,1,1,0,296.4995,141.66034)" stroke-width=".39848" stroke-linecap="round" stroke-linejoin="round" fill="none" stroke="#000000" d="M-2.07213 2.39091C-1.69356 .95633-.84995 .27893 0 0-.84995-.27893-1.69356-.95633-2.07213-2.39091"/>
<use data-text="m" xlink:href="#font_2_9" transform="matrix(6.9738,0,0,-6.9738,287.085,134.59299)"/>
<path transform="matrix(1,0,0,-1,206.836,97.77799)" stroke-width=".39848" stroke-linecap="butt" stroke-miterlimit="10" stroke-linejoin="miter" fill="none" stroke="#000000" d="M100.51828-25.84827 123.82843-44.08488"/>
<path transform="matrix(-.78758,-.61617,-.61617,.78758,307.27583,123.56487)" stroke-width=".39848" stroke-linecap="round" stroke-miterlimit="10" stroke-linejoin="miter" fill="none" stroke="#000000" d="M0 1.63379V-1.63379"/>
<path transform="matrix(.78758,.61617,.61617,-.78758,330.82136,141.98563)" stroke-width=".39848" stroke-linecap="round" stroke-linejoin="round" fill="none" stroke="#000000" d="M-2.07213 2.39091C-1.69356 .95633-.84995 .27893 0 0-.84995-.27893-1.69356-.95633-2.07213-2.39091"/>
<path transform="matrix(1,0,0,-1,206.836,97.77799)" d="M106.53299-38.64334H117.892169V-31.351162H106.53299Z" fill="#ffffff"/>
<use data-text="m" xlink:href="#font_2_9" transform="matrix(6.9738,0,0,-6.9738,315.512,134.276)"/>
<path transform="matrix(1,0,0,-1,206.836,97.77799)" stroke-width=".39848" stroke-linecap="butt" stroke-miterlimit="10" stroke-linejoin="miter" fill="none" stroke="#000000" d="M-129.27288-52.24413H-105.56398"/>
<path transform="matrix(-1,-0,0,1,77.36389,150.02213)" stroke-width=".39848" stroke-linecap="round" stroke-linejoin="round" fill="none" stroke="#000000" d="M-2.07213 2.39091C-1.69356 .95633-.84995 .27893 0 0-.84995-.27893-1.69356-.95633-2.07213-2.39091"/>
<path transform="matrix(1,0,0,-1,101.47127,150.02213)" stroke-width=".39848" stroke-linecap="round" stroke-linejoin="round" fill="none" stroke="#000000" d="M-2.07213 2.39091C-1.69356 .95633-.84995 .27893 0 0-.84995-.27893-1.69356-.95633-2.07213-2.39091"/>
<use data-text="t" xlink:href="#font_2_10" transform="matrix(6.9738,0,0,-6.9738,87.914,156.655)"/>
<path transform="matrix(1,0,0,-1,206.836,97.77799)" stroke-width=".39848" stroke-linecap="butt" stroke-miterlimit="10" stroke-linejoin="miter" fill="none" stroke="#000000" d="M-84.51772-52.24413H-60.96135"/>
<path transform="matrix(-1,-0,0,1,122.11905,150.02213)" stroke-width=".39848" stroke-linecap="round" stroke-linejoin="round" fill="none" stroke="#000000" d="M-2.07213 2.39091C-1.69356 .95633-.84995 .27893 0 0-.84995-.27893-1.69356-.95633-2.07213-2.39091"/>
<path transform="matrix(1,0,0,-1,146.07389,150.02213)" stroke-width=".39848" stroke-linecap="round" stroke-linejoin="round" fill="none" stroke="#000000" d="M-2.07213 2.39091C-1.69356 .95633-.84995 .27893 0 0-.84995-.27893-1.69356-.95633-2.07213-2.39091"/>
<use data-text="t" xlink:href="#font_2_10" transform="matrix(6.9738,0,0,-6.9738,132.592,156.655)"/>
<path transform="matrix(1,0,0,-1,206.836,97.77799)" stroke-width=".39848" stroke-linecap="butt" stroke-miterlimit="10" stroke-linejoin="miter" fill="none" stroke="#000000" d="M-39.9151-52.24413H-14.92542"/>
<path transform="matrix(-1,-0,0,1,166.72167,150.02213)" stroke-width=".39848" stroke-linecap="round" stroke-linejoin="round" fill="none" stroke="#000000" d="M-2.07213 2.39091C-1.69356 .95633-.84995 .27893 0 0-.84995-.27893-1.69356-.95633-2.07213-2.39091"/>
<path transform="matrix(1,0,0,-1,192.10982,150.02213)" stroke-width=".39848" stroke-linecap="round" stroke-linejoin="round" fill="none" stroke="#000000" d="M-2.07213 2.39091C-1.69356 .95633-.84995 .27893 0 0-.84995-.27893-1.69356-.95633-2.07213-2.39091"/>
<use data-text="t" xlink:href="#font_2_10" transform="matrix(6.9738,0,0,-6.9738,177.911,156.655)"/>
<path transform="matrix(1,0,0,-1,206.836,97.77799)" stroke-width=".39848" stroke-linecap="butt" stroke-miterlimit="10" stroke-linejoin="miter" fill="none" stroke="#000000" d="M6.55324-52.24413H33.11621"/>
<path transform="matrix(-1,-0,0,1,213.18999,150.02213)" stroke-width=".39848" stroke-linecap="round" stroke-linejoin="round" fill="none" stroke="#000000" d="M-2.07213 2.39091C-1.69356 .95633-.84995 .27893 0 0-.84995-.27893-1.69356-.95633-2.07213-2.39091"/>
<path transform="matrix(1,0,0,-1,240.15145,150.02213)" stroke-width=".39848" stroke-linecap="round" stroke-linejoin="round" fill="none" stroke="#000000" d="M-2.07213 2.39091C-1.69356 .95633-.84995 .27893 0 0-.84995-.27893-1.69356-.95633-2.07213-2.39091"/>
<use data-text="t" xlink:href="#font_2_10" transform="matrix(6.9738,0,0,-6.9738,225.165,156.655)"/>
<path transform="matrix(1,0,0,-1,206.836,97.77799)" stroke-width=".39848" stroke-linecap="butt" stroke-miterlimit="10" stroke-linejoin="miter" fill="none" stroke="#000000" d="M54.16246-52.24413H79.14038"/>
<path transform="matrix(-1,-0,0,1,260.79924,150.02213)" stroke-width=".39848" stroke-linecap="round" stroke-linejoin="round" fill="none" stroke="#000000" d="M-2.07213 2.39091C-1.69356 .95633-.84995 .27893 0 0-.84995-.27893-1.69356-.95633-2.07213-2.39091"/>
<path transform="matrix(1,0,0,-1,286.1756,150.02213)" stroke-width=".39848" stroke-linecap="round" stroke-linejoin="round" fill="none" stroke="#000000" d="M-2.07213 2.39091C-1.69356 .95633-.84995 .27893 0 0-.84995-.27893-1.69356-.95633-2.07213-2.39091"/>
<use data-text="t" xlink:href="#font_2_10" transform="matrix(6.9738,0,0,-6.9738,271.982,156.655)"/>
<path transform="matrix(1,0,0,-1,206.836,97.77799)" stroke-width=".39848" stroke-linecap="butt" stroke-miterlimit="10" stroke-linejoin="miter" fill="none" stroke="#000000" d="M100.18665-52.24413H123.74379"/>
<path transform="matrix(-1,-0,0,1,306.8234,150.02213)" stroke-width=".39848" stroke-linecap="round" stroke-linejoin="round" fill="none" stroke="#000000" d="M-2.07213 2.39091C-1.69356 .95633-.84995 .27893 0 0-.84995-.27893-1.69356-.95633-2.07213-2.39091"/>
<path transform="matrix(1,0,0,-1,330.77903,150.02213)" stroke-width=".39848" stroke-linecap="round" stroke-linejoin="round" fill="none" stroke="#000000" d="M-2.07213 2.39091C-1.69356 .95633-.84995 .27893 0 0-.84995-.27893-1.69356-.95633-2.07213-2.39091"/>
<use data-text="t" xlink:href="#font_2_10" transform="matrix(6.9738,0,0,-6.9738,317.29499,156.655)"/>
<path transform="matrix(1,0,0,-1,206.836,97.77799)" stroke-width=".39848" stroke-linecap="butt" stroke-miterlimit="10" stroke-linejoin="miter" fill="none" stroke="#000000" d="M134.26692-43.68312V-25.5895"/>
<path transform="matrix(0,1,1,0,341.1029,141.66034)" stroke-width=".39848" stroke-linecap="round" stroke-linejoin="round" fill="none" stroke="#000000" d="M-2.07213 2.39091C-1.69356 .95633-.84995 .27893 0 0-.84995-.27893-1.69356-.95633-2.07213-2.39091"/>
<path transform="matrix(0,-1,-1,-0,341.1029,123.16825)" stroke-width=".39848" stroke-linecap="round" stroke-linejoin="round" fill="none" stroke="#000000" d="M-2.07213 2.39091C-1.69356 .95633-.84995 .27893 0 0-.84995-.27893-1.69356-.95633-2.07213-2.39091"/>
<use data-text="t" xlink:href="#font_2_10" transform="matrix(6.9738,0,0,-6.9738,343.445,134.55899)"/>
<path transform="matrix(1,0,0,-1,206.836,97.77799)" stroke-width=".39848" stroke-linecap="butt" stroke-miterlimit="10" stroke-linejoin="miter" fill="none" stroke="#000000" d="M-190.3433-77.60909V76.5099"/>
<path transform="matrix(0,-1,-1,-0,16.492691,21.06884)" stroke-width=".39848" stroke-linecap="round" stroke-linejoin="round" fill="none" stroke="#000000" d="M-2.07213 2.39091C-1.69356 .95633-.84995 .27893 0 0-.84995-.27893-1.69356-.95633-2.07213-2.39091"/>
<use data-text="&#x2022;" xlink:href="#font_1_3" transform="matrix(0,-9.9626,-9.9626,-0,18.985993,100.618999)" fill="#ffffff"/>
<use data-text="&#x25e6;" xlink:href="#font_1_2" transform="matrix(0,-9.9626,-9.9626,-0,18.985993,100.618999)"/>
<path transform="matrix(1,0,0,-1,206.836,97.77799)" stroke-width=".39848" stroke-linecap="butt" stroke-miterlimit="10" stroke-linejoin="miter" fill="none" stroke="#000000" d="M-182.25688-85.77162H176.75374"/>
<path transform="matrix(1,0,0,-1,383.789,183.54962)" stroke-width=".39848" stroke-linecap="round" stroke-linejoin="round" fill="none" stroke="#000000" d="M-2.07213 2.39091C-1.69356 .95633-.84995 .27893 0 0-.84995-.27893-1.69356-.95633-2.07213-2.39091"/>
<use data-text="M" xlink:href="#font_3_5" transform="matrix(6.9738,0,0,-6.9738,199.143,179.918)"/>
<use data-text="t" xlink:href="#font_3_11" transform="matrix(6.9738,0,0,-6.9738,206.31208,179.918)"/>
<use data-text="&#x2022;" xlink:href="#font_1_3" transform="matrix(9.9626,0,0,-9.9626,201.793,186.039)" fill="#ffffff"/>
<use data-text="&#x25e6;" xlink:href="#font_1_2" transform="matrix(9.9626,0,0,-9.9626,201.793,186.039)"/>
<path transform="matrix(1,0,0,-1,206.836,97.77799)" stroke-width=".39848" stroke-linecap="butt" stroke-miterlimit="10" stroke-linejoin="miter" fill="none" stroke="#000000" d="M187.57877-77.60909V76.86964"/>
<path transform="matrix(0,-1,-1,-0,394.41477,20.709115)" stroke-width=".39848" stroke-linecap="round" stroke-linejoin="round" fill="none" stroke="#000000" d="M-2.07213 2.39091C-1.69356 .95633-.84995 .27893 0 0-.84995-.27893-1.69356-.95633-2.07213-2.39091"/>
<use data-text="&#x2022;" xlink:href="#font_1_3" transform="matrix(0,-9.9626,-9.9626,-0,396.903,100.438999)"/>
</svg>
