<svg xmlns="http://www.w3.org/2000/svg" xmlns:xlink="http://www.w3.org/1999/xlink" xmlns:inkscape="http://www.inkscape.org/namespaces/inkscape" version="1.1" width="62.244" height="19.348" viewBox="0 0 62.244 19.348">
<defs>
<path id="font_1_1" d="M.61499026 .6826172C.5189972 .6826172 .43598939 .63661196 .3899994 .6036072 .2809906 .52563479 .2689972 .44166566 .2689972 .43966676 .2689972 .43267823 .2749939 .43267823 .2789917 .43267823 .3019867 .43267823 .34700013 .46066285 .35299684 .47865296 .38598634 .58462527 .45799256 .62760928 .55599978 .62760928H.68899539C.57899478 .53964236 .5329895 .38868714 .46699525 .12878418 .44299317 .035812379 .38198854-.06414795 .2809906-.06414795 .20298767-.06414795 .13198853-.012161255 .13198853 .074798587 .13198853 .09480286 .13699341 .11178589 .13699341 .11578369 .13699341 .11878967 .13598633 .12478638 .1269989 .12478638 .12098694 .12478638 .09799194 .119781497 .069992069 .09880066 .057998659 .08979797 .04699707 .07980347 .04699707 .032821657 .04699707-.059143068 .116989139-.119140628 .21499634-.119140628 .2999878-.119140628 .3809967-.07115173 .42999269-.029159546 .5219879 .049804689 .5399933 .122787479 .55799868 .1937561 .59498599 .3387146 .6429901 .52064517 .71798709 .60461428 .73399356 .62260439 .73799136 .62561038 .7609863 .62760928 .80599978 .63061526 .83999636 .6646118 .83999636 .6756134 .83999636 .6816101 .83898928 .6826172 .81700137 .6826172H.61499026Z"/>
<path id="font_2_1" d="M.44198609 .21427918C.44198609 .3423462 .34700013 .4423828 .23498535 .4423828 .11999512 .4423828 .026992798 .33935548 .026992798 .21427918 .026992798 .08720398 .12298584-.0078125 .23399353-.0078125 .34799195-.0078125 .44198609 .0901947 .44198609 .21427918M.23498535 .05517578C.1639862 .05517578 .102996829 .113220218 .102996829 .22227478 .102996829 .3383484 .17399597 .38137818 .23399353 .38137818 .29899598 .38137818 .3659973 .3343506 .3659973 .22227478 .3659973 .10920715 .30099488 .05517578 .23498535 .05517578Z"/>
<path id="font_3_2" d="M.621994 .6796112H.04499817L.027999878 .45872499H.04598999C.05899048 .6246338 .07299805 .6536102 .22698975 .6536102 .24499512 .6536102 .27398683 .6536102 .28199769 .65260317 .30099488 .6496124 .30099488 .637619 .30099488 .6146393V.07296753C.30099488 .036987306 .2979889 .025985718 .21499634 .025985718H.18699646V0C.23498535 .0009918213 .2849884 .0019989014 .33399964 .0019989014 .3829956 .0019989014 .43299867 .0009918213 .48098756 0V.025985718H.45298768C.36999513 .025985718 .36698915 .036987306 .36698915 .07296753V.6146393C.36698915 .6366272 .36698915 .6486206 .3849945 .65260317 .3929901 .6536102 .42199708 .6536102 .43998719 .6536102 .59298709 .6536102 .60798647 .6246338 .62098696 .45872499H.6389923L.621994 .6796112Z"/>
<path id="font_3_1" d="M.43798829 .6792145C.43798829 .6972046 .43699647 .69821169 .43099977 .69821169 .4249878 .69821169 .4229889 .69421389 .4189911 .6852112L.3889923 .6192169C.35099793 .6742096 .29299928 .69921877 .22999573 .69921877 .12799073 .69921877 .04598999 .6182251 .04598999 .5162506 .04598999 .48526 .052993776 .44126893 .08699036 .39927674 .12399292 .35328675 .15899658 .34529115 .23899842 .32429505 .2689972 .31629945 .31900025 .30329896 .32899476 .29930116 .38598634 .27529908 .41600038 .21531677 .41600038 .15933228 .41600038 .08735657 .36499024 .010360718 .27799989 .010360718 .17098999 .010360718 .070999149 .07035828 .06399536 .21032715 .06298828 .22631836 .06199646 .22731018 .054992677 .22731018 .04699707 .22731018 .04598999 .22631836 .04598999 .20631409V.0043640139C.04598999-.013626099 .04699707-.014633179 .052993776-.014633179 .05999756-.014633179 .06199646-.009628296 .07598877 .021362305 .07699585 .024368287 .07699585 .026367188 .09599304 .06436157 .1459961-.0016326904 .22999573-.015625 .27799989-.015625 .3869934-.015625 .46398927 .0753479 .46398927 .18132019 .46398927 .23332215 .44499208 .27330018 .43399049 .29130555 .3919983 .35528565 .34700013 .36727906 .29899598 .37928773 .2919922 .38227845 .2899933 .38227845 .23399353 .39627076 .17999268 .41027833 .15699768 .41726686 .13198853 .44425965 .10398865 .47525025 .09399414 .5072479 .09399414 .5392456 .09399414 .6042328 .1459961 .6752167 .23098755 .6752167 .33699037 .6752167 .40299989 .600235 .41799928 .47525025 .42099 .45726014 .42199708 .4562683 .42900086 .4562683 .43798829 .4562683 .43798829 .45925904 .43798829 .47625733V.6792145Z"/>
</defs>
<use data-text="J" xlink:href="#font_1_1" transform="matrix(24.7871,0,0,-24.7871,0,16.938)" fill="#ffffff"/>
<use data-text="o" xlink:href="#font_2_1" transform="matrix(24.7871,0,0,-24.7871,21.391268,16.938)" fill="#2f839e"/>
<use data-text="T" xlink:href="#font_3_2" transform="matrix(24.7871,0,0,-24.7871,33.041208,16.938)" fill="#ffffff"/>
<use data-text="S" xlink:href="#font_3_1" transform="matrix(24.7871,0,0,-24.7871,49.59899,16.938)" fill="#ffffff"/>
</svg>
